STARTFONT 2.1
COMMENT
COMMENT Converted from OpenType font "NimbusSans-Regular.otf" by "otf2bdf 3.0".
COMMENT
FONT -FreeType-Nimbus Sans-Medium-R-Normal--11-80-100-100-P-61-ISO10646-1
SIZE 8 100 100
FONTBOUNDINGBOX 13 16 -2 -3
STARTPROPERTIES 19
FOUNDRY "FreeType"
FAMILY_NAME "Nimbus Sans"
WEIGHT_NAME "Medium"
SLANT "R"
SETWIDTH_NAME "Normal"
ADD_STYLE_NAME ""
PIXEL_SIZE 11
POINT_SIZE 80
RESOLUTION_X 100
RESOLUTION_Y 100
SPACING "P"
AVERAGE_WIDTH 61
CHARSET_REGISTRY "ISO10646"
CHARSET_ENCODING "1"
FONT_ASCENT 8
FONT_DESCENT 2
COPYRIGHT "(URW)++,Copyright 2014 by (URW)++ Design & Development"
_OTF_FONTFILE "NimbusSans-Regular.otf"
_OTF_PSNAME "NimbusSans-Regular"
ENDPROPERTIES
CHARS 854
STARTCHAR 0020
ENCODING 32
SWIDTH 270 0
DWIDTH 3 0
BBX 0 0 0 0
BITMAP
ENDCHAR
STARTCHAR 0021
ENCODING 33
SWIDTH 270 0
DWIDTH 3 0
BBX 1 9 1 0
BITMAP
80
80
80
80
80
80
80
00
80
ENDCHAR
STARTCHAR 0022
ENCODING 34
SWIDTH 360 0
DWIDTH 4 0
BBX 2 2 1 5
BITMAP
C0
C0
ENDCHAR
STARTCHAR 0023
ENCODING 35
SWIDTH 540 0
DWIDTH 6 0
BBX 6 8 0 0
BITMAP
28
28
7C
28
48
FC
50
50
ENDCHAR
STARTCHAR 0024
ENCODING 36
SWIDTH 540 0
DWIDTH 6 0
BBX 6 9 0 0
BITMAP
78
68
60
60
18
24
A4
78
20
ENDCHAR
STARTCHAR 0025
ENCODING 37
SWIDTH 900 0
DWIDTH 10 0
BBX 9 8 0 0
BITMAP
6200
9200
9400
6400
0980
1280
1280
2380
ENDCHAR
STARTCHAR 0026
ENCODING 38
SWIDTH 630 0
DWIDTH 7 0
BBX 6 8 1 0
BITMAP
70
90
50
60
A8
98
98
E4
ENDCHAR
STARTCHAR 0027
ENCODING 39
SWIDTH 180 0
DWIDTH 2 0
BBX 1 2 1 5
BITMAP
80
80
ENDCHAR
STARTCHAR 0028
ENCODING 40
SWIDTH 360 0
DWIDTH 4 0
BBX 2 10 1 -1
BITMAP
40
80
80
80
80
80
80
80
80
40
ENDCHAR
STARTCHAR 0029
ENCODING 41
SWIDTH 360 0
DWIDTH 4 0
BBX 3 10 0 -1
BITMAP
80
40
40
20
20
20
20
40
40
40
ENDCHAR
STARTCHAR 002A
ENCODING 42
SWIDTH 360 0
DWIDTH 4 0
BBX 4 3 0 6
BITMAP
40
F0
60
ENDCHAR
STARTCHAR 002B
ENCODING 43
SWIDTH 540 0
DWIDTH 6 0
BBX 5 5 1 0
BITMAP
20
20
F8
20
20
ENDCHAR
STARTCHAR 002C
ENCODING 44
SWIDTH 270 0
DWIDTH 3 0
BBX 1 3 1 -2
BITMAP
80
80
80
ENDCHAR
STARTCHAR 002D
ENCODING 45
SWIDTH 360 0
DWIDTH 4 0
BBX 2 1 1 3
BITMAP
C0
ENDCHAR
STARTCHAR 002E
ENCODING 46
SWIDTH 270 0
DWIDTH 3 0
BBX 1 1 1 0
BITMAP
80
ENDCHAR
STARTCHAR 002F
ENCODING 47
SWIDTH 270 0
DWIDTH 3 0
BBX 3 9 0 0
BITMAP
20
20
40
40
40
40
80
80
80
ENDCHAR
STARTCHAR 0030
ENCODING 48
SWIDTH 540 0
DWIDTH 6 0
BBX 6 8 0 0
BITMAP
30
48
44
84
84
44
48
38
ENDCHAR
STARTCHAR 0031
ENCODING 49
SWIDTH 540 0
DWIDTH 6 0
BBX 2 8 2 0
BITMAP
40
C0
40
40
40
40
40
40
ENDCHAR
STARTCHAR 0032
ENCODING 50
SWIDTH 540 0
DWIDTH 6 0
BBX 6 8 0 0
BITMAP
78
4C
44
08
10
60
40
FC
ENDCHAR
STARTCHAR 0033
ENCODING 51
SWIDTH 540 0
DWIDTH 6 0
BBX 6 8 0 0
BITMAP
78
48
08
38
08
84
48
78
ENDCHAR
STARTCHAR 0034
ENCODING 52
SWIDTH 540 0
DWIDTH 6 0
BBX 6 8 0 0
BITMAP
18
18
28
48
48
FC
08
08
ENDCHAR
STARTCHAR 0035
ENCODING 53
SWIDTH 540 0
DWIDTH 6 0
BBX 5 8 1 0
BITMAP
F0
80
80
F0
98
08
90
F0
ENDCHAR
STARTCHAR 0036
ENCODING 54
SWIDTH 540 0
DWIDTH 6 0
BBX 6 8 0 0
BITMAP
38
48
40
B8
CC
44
48
38
ENDCHAR
STARTCHAR 0037
ENCODING 55
SWIDTH 540 0
DWIDTH 6 0
BBX 5 8 1 0
BITMAP
F8
10
10
20
20
40
40
40
ENDCHAR
STARTCHAR 0038
ENCODING 56
SWIDTH 540 0
DWIDTH 6 0
BBX 6 8 0 0
BITMAP
78
48
48
30
48
84
4C
78
ENDCHAR
STARTCHAR 0039
ENCODING 57
SWIDTH 540 0
DWIDTH 6 0
BBX 6 8 0 0
BITMAP
78
48
84
4C
74
08
48
70
ENDCHAR
STARTCHAR 003A
ENCODING 58
SWIDTH 270 0
DWIDTH 3 0
BBX 1 6 1 0
BITMAP
80
00
00
00
00
80
ENDCHAR
STARTCHAR 003B
ENCODING 59
SWIDTH 270 0
DWIDTH 3 0
BBX 1 8 1 -2
BITMAP
80
00
00
00
00
80
80
80
ENDCHAR
STARTCHAR 003C
ENCODING 60
SWIDTH 540 0
DWIDTH 6 0
BBX 6 5 0 0
BITMAP
0C
30
C0
30
0C
ENDCHAR
STARTCHAR 003D
ENCODING 61
SWIDTH 540 0
DWIDTH 6 0
BBX 5 3 1 1
BITMAP
F8
00
F8
ENDCHAR
STARTCHAR 003E
ENCODING 62
SWIDTH 540 0
DWIDTH 6 0
BBX 5 5 1 0
BITMAP
C0
30
08
70
80
ENDCHAR
STARTCHAR 003F
ENCODING 63
SWIDTH 540 0
DWIDTH 6 0
BBX 5 9 1 0
BITMAP
70
98
88
10
30
20
20
00
20
ENDCHAR
STARTCHAR 0040
ENCODING 64
SWIDTH 990 0
DWIDTH 11 0
BBX 11 11 0 -2
BITMAP
0F00
3080
4640
4960
9120
9240
9240
4F80
4000
3000
0F00
ENDCHAR
STARTCHAR 0041
ENCODING 65
SWIDTH 630 0
DWIDTH 7 0
BBX 7 9 0 0
BITMAP
18
18
28
2C
24
7C
44
42
82
ENDCHAR
STARTCHAR 0042
ENCODING 66
SWIDTH 630 0
DWIDTH 7 0
BBX 6 9 1 0
BITMAP
F8
88
84
88
F8
84
84
84
F8
ENDCHAR
STARTCHAR 0043
ENCODING 67
SWIDTH 720 0
DWIDTH 8 0
BBX 6 9 1 0
BITMAP
78
C4
84
80
80
80
84
C4
78
ENDCHAR
STARTCHAR 0044
ENCODING 68
SWIDTH 720 0
DWIDTH 8 0
BBX 6 9 1 0
BITMAP
F8
8C
84
84
84
84
84
8C
F8
ENDCHAR
STARTCHAR 0045
ENCODING 69
SWIDTH 630 0
DWIDTH 7 0
BBX 6 9 1 0
BITMAP
FC
80
80
80
F8
80
80
80
FC
ENDCHAR
STARTCHAR 0046
ENCODING 70
SWIDTH 630 0
DWIDTH 7 0
BBX 5 9 1 0
BITMAP
F8
80
80
80
F8
80
80
80
80
ENDCHAR
STARTCHAR 0047
ENCODING 71
SWIDTH 810 0
DWIDTH 9 0
BBX 8 9 0 0
BITMAP
3C
62
41
40
CF
41
41
63
3D
ENDCHAR
STARTCHAR 0048
ENCODING 72
SWIDTH 720 0
DWIDTH 8 0
BBX 6 9 1 0
BITMAP
84
84
84
84
FC
84
84
84
84
ENDCHAR
STARTCHAR 0049
ENCODING 73
SWIDTH 270 0
DWIDTH 3 0
BBX 1 9 1 0
BITMAP
80
80
80
80
80
80
80
80
80
ENDCHAR
STARTCHAR 004A
ENCODING 74
SWIDTH 540 0
DWIDTH 6 0
BBX 5 9 0 0
BITMAP
08
08
08
08
08
08
88
98
70
ENDCHAR
STARTCHAR 004B
ENCODING 75
SWIDTH 630 0
DWIDTH 7 0
BBX 6 9 1 0
BITMAP
8C
88
90
A0
E0
90
88
88
84
ENDCHAR
STARTCHAR 004C
ENCODING 76
SWIDTH 540 0
DWIDTH 6 0
BBX 5 9 1 0
BITMAP
80
80
80
80
80
80
80
80
F8
ENDCHAR
STARTCHAR 004D
ENCODING 77
SWIDTH 810 0
DWIDTH 9 0
BBX 7 9 1 0
BITMAP
82
C2
C6
C6
A6
AA
AA
9A
92
ENDCHAR
STARTCHAR 004E
ENCODING 78
SWIDTH 720 0
DWIDTH 8 0
BBX 6 9 1 0
BITMAP
84
C4
C4
A4
B4
94
8C
8C
84
ENDCHAR
STARTCHAR 004F
ENCODING 79
SWIDTH 810 0
DWIDTH 9 0
BBX 8 9 0 0
BITMAP
3C
62
41
C1
81
C1
41
62
3C
ENDCHAR
STARTCHAR 0050
ENCODING 80
SWIDTH 630 0
DWIDTH 7 0
BBX 6 9 1 0
BITMAP
F8
8C
84
8C
F8
80
80
80
80
ENDCHAR
STARTCHAR 0051
ENCODING 81
SWIDTH 810 0
DWIDTH 9 0
BBX 8 9 0 0
BITMAP
3C
62
41
C1
81
C1
45
66
3D
ENDCHAR
STARTCHAR 0052
ENCODING 82
SWIDTH 720 0
DWIDTH 8 0
BBX 6 9 1 0
BITMAP
F8
84
84
84
F8
84
84
84
84
ENDCHAR
STARTCHAR 0053
ENCODING 83
SWIDTH 630 0
DWIDTH 7 0
BBX 6 9 1 0
BITMAP
78
88
84
C0
78
0C
84
84
78
ENDCHAR
STARTCHAR 0054
ENCODING 84
SWIDTH 630 0
DWIDTH 7 0
BBX 7 9 0 0
BITMAP
FE
10
10
10
10
10
10
10
10
ENDCHAR
STARTCHAR 0055
ENCODING 85
SWIDTH 720 0
DWIDTH 8 0
BBX 6 9 1 0
BITMAP
84
84
84
84
84
84
84
84
78
ENDCHAR
STARTCHAR 0056
ENCODING 86
SWIDTH 630 0
DWIDTH 7 0
BBX 7 9 0 0
BITMAP
C2
42
44
64
24
28
28
18
18
ENDCHAR
STARTCHAR 0057
ENCODING 87
SWIDTH 900 0
DWIDTH 10 0
BBX 10 9 0 0
BITMAP
8440
4C40
4C40
4AC0
4A80
3280
3280
3180
3100
ENDCHAR
STARTCHAR 0058
ENCODING 88
SWIDTH 630 0
DWIDTH 7 0
BBX 6 9 1 0
BITMAP
84
C8
58
30
20
70
58
88
84
ENDCHAR
STARTCHAR 0059
ENCODING 89
SWIDTH 630 0
DWIDTH 7 0
BBX 7 9 0 0
BITMAP
C2
44
24
28
18
10
10
10
10
ENDCHAR
STARTCHAR 005A
ENCODING 90
SWIDTH 630 0
DWIDTH 7 0
BBX 6 9 0 0
BITMAP
7C
04
08
18
10
20
60
40
FC
ENDCHAR
STARTCHAR 005B
ENCODING 91
SWIDTH 270 0
DWIDTH 3 0
BBX 2 11 1 -2
BITMAP
C0
80
80
80
80
80
80
80
80
80
C0
ENDCHAR
STARTCHAR 005C
ENCODING 92
SWIDTH 270 0
DWIDTH 3 0
BBX 3 9 0 0
BITMAP
80
80
80
40
40
40
40
20
20
ENDCHAR
STARTCHAR 005D
ENCODING 93
SWIDTH 270 0
DWIDTH 3 0
BBX 2 11 0 -2
BITMAP
C0
40
40
40
40
40
40
40
40
40
C0
ENDCHAR
STARTCHAR 005E
ENCODING 94
SWIDTH 450 0
DWIDTH 5 0
BBX 3 4 1 4
BITMAP
40
A0
A0
A0
ENDCHAR
STARTCHAR 005F
ENCODING 95
SWIDTH 540 0
DWIDTH 6 0
BBX 6 1 0 -2
BITMAP
FC
ENDCHAR
STARTCHAR 0060
ENCODING 96
SWIDTH 360 0
DWIDTH 4 0
BBX 1 1 1 7
BITMAP
80
ENDCHAR
STARTCHAR 0061
ENCODING 97
SWIDTH 540 0
DWIDTH 6 0
BBX 6 6 0 0
BITMAP
78
48
08
78
88
7C
ENDCHAR
STARTCHAR 0062
ENCODING 98
SWIDTH 540 0
DWIDTH 6 0
BBX 5 9 1 0
BITMAP
80
80
80
F0
98
88
88
98
F0
ENDCHAR
STARTCHAR 0063
ENCODING 99
SWIDTH 540 0
DWIDTH 6 0
BBX 5 6 0 0
BITMAP
70
48
80
80
48
70
ENDCHAR
STARTCHAR 0064
ENCODING 100
SWIDTH 540 0
DWIDTH 6 0
BBX 5 9 0 0
BITMAP
08
08
08
78
48
88
88
48
78
ENDCHAR
STARTCHAR 0065
ENCODING 101
SWIDTH 540 0
DWIDTH 6 0
BBX 6 6 0 0
BITMAP
78
4C
FC
80
48
78
ENDCHAR
STARTCHAR 0066
ENCODING 102
SWIDTH 270 0
DWIDTH 3 0
BBX 3 9 0 0
BITMAP
60
40
40
E0
40
40
40
40
40
ENDCHAR
STARTCHAR 0067
ENCODING 103
SWIDTH 540 0
DWIDTH 6 0
BBX 5 8 0 -2
BITMAP
78
48
88
88
48
78
48
70
ENDCHAR
STARTCHAR 0068
ENCODING 104
SWIDTH 540 0
DWIDTH 6 0
BBX 4 9 1 0
BITMAP
80
80
80
F0
90
90
90
90
90
ENDCHAR
STARTCHAR 0069
ENCODING 105
SWIDTH 180 0
DWIDTH 2 0
BBX 1 9 1 0
BITMAP
80
00
00
80
80
80
80
80
80
ENDCHAR
STARTCHAR 006A
ENCODING 106
SWIDTH 180 0
DWIDTH 2 0
BBX 2 12 0 -3
BITMAP
40
00
00
40
40
40
40
40
40
40
40
80
ENDCHAR
STARTCHAR 006B
ENCODING 107
SWIDTH 540 0
DWIDTH 6 0
BBX 4 9 1 0
BITMAP
80
80
80
90
A0
C0
A0
90
90
ENDCHAR
STARTCHAR 006C
ENCODING 108
SWIDTH 180 0
DWIDTH 2 0
BBX 1 9 1 0
BITMAP
80
80
80
80
80
80
80
80
80
ENDCHAR
STARTCHAR 006D
ENCODING 109
SWIDTH 810 0
DWIDTH 9 0
BBX 7 6 1 0
BITMAP
FE
92
92
92
92
92
ENDCHAR
STARTCHAR 006E
ENCODING 110
SWIDTH 540 0
DWIDTH 6 0
BBX 4 6 1 0
BITMAP
F0
90
90
90
90
90
ENDCHAR
STARTCHAR 006F
ENCODING 111
SWIDTH 540 0
DWIDTH 6 0
BBX 6 6 0 0
BITMAP
78
48
84
84
48
78
ENDCHAR
STARTCHAR 0070
ENCODING 112
SWIDTH 540 0
DWIDTH 6 0
BBX 5 8 1 -2
BITMAP
F0
98
88
88
98
F0
80
80
ENDCHAR
STARTCHAR 0071
ENCODING 113
SWIDTH 540 0
DWIDTH 6 0
BBX 5 8 0 -2
BITMAP
78
48
88
88
48
78
08
08
ENDCHAR
STARTCHAR 0072
ENCODING 114
SWIDTH 360 0
DWIDTH 4 0
BBX 3 6 1 0
BITMAP
E0
80
80
80
80
80
ENDCHAR
STARTCHAR 0073
ENCODING 115
SWIDTH 540 0
DWIDTH 6 0
BBX 5 6 0 0
BITMAP
70
48
60
18
88
70
ENDCHAR
STARTCHAR 0074
ENCODING 116
SWIDTH 270 0
DWIDTH 3 0
BBX 3 8 0 0
BITMAP
40
40
E0
40
40
40
40
60
ENDCHAR
STARTCHAR 0075
ENCODING 117
SWIDTH 540 0
DWIDTH 6 0
BBX 4 6 1 0
BITMAP
90
90
90
90
90
F0
ENDCHAR
STARTCHAR 0076
ENCODING 118
SWIDTH 540 0
DWIDTH 6 0
BBX 5 6 0 0
BITMAP
88
48
50
50
30
20
ENDCHAR
STARTCHAR 0077
ENCODING 119
SWIDTH 720 0
DWIDTH 8 0
BBX 8 6 0 0
BITMAP
99
9A
5A
6A
66
24
ENDCHAR
STARTCHAR 0078
ENCODING 120
SWIDTH 540 0
DWIDTH 6 0
BBX 4 6 1 0
BITMAP
90
A0
60
60
A0
90
ENDCHAR
STARTCHAR 0079
ENCODING 121
SWIDTH 540 0
DWIDTH 6 0
BBX 5 8 0 -2
BITMAP
88
48
50
50
30
20
20
40
ENDCHAR
STARTCHAR 007A
ENCODING 122
SWIDTH 540 0
DWIDTH 6 0
BBX 5 6 0 0
BITMAP
78
10
30
20
40
F8
ENDCHAR
STARTCHAR 007B
ENCODING 123
SWIDTH 360 0
DWIDTH 4 0
BBX 3 10 0 -1
BITMAP
20
40
40
40
40
C0
40
40
40
60
ENDCHAR
STARTCHAR 007C
ENCODING 124
SWIDTH 270 0
DWIDTH 3 0
BBX 1 10 1 -1
BITMAP
80
80
80
80
80
80
80
80
80
80
ENDCHAR
STARTCHAR 007D
ENCODING 125
SWIDTH 360 0
DWIDTH 4 0
BBX 3 10 0 -1
BITMAP
C0
40
40
40
40
20
40
40
40
40
ENDCHAR
STARTCHAR 007E
ENCODING 126
SWIDTH 540 0
DWIDTH 6 0
BBX 5 3 1 2
BITMAP
C0
A8
10
ENDCHAR
STARTCHAR 00A0
ENCODING 160
SWIDTH 270 0
DWIDTH 3 0
BBX 0 0 0 0
BITMAP
ENDCHAR
STARTCHAR 00A1
ENCODING 161
SWIDTH 360 0
DWIDTH 4 0
BBX 1 8 1 -2
BITMAP
80
00
80
80
80
80
80
80
ENDCHAR
STARTCHAR 00A2
ENCODING 162
SWIDTH 540 0
DWIDTH 6 0
BBX 5 6 1 0
BITMAP
70
D0
C0
C0
C8
F0
ENDCHAR
STARTCHAR 00A3
ENCODING 163
SWIDTH 540 0
DWIDTH 6 0
BBX 6 9 0 0
BITMAP
38
4C
44
40
F0
20
20
40
FC
ENDCHAR
STARTCHAR 00A4
ENCODING 164
SWIDTH 540 0
DWIDTH 6 0
BBX 4 4 1 2
BITMAP
F0
90
90
F0
ENDCHAR
STARTCHAR 00A5
ENCODING 165
SWIDTH 540 0
DWIDTH 6 0
BBX 6 8 0 0
BITMAP
84
48
48
30
78
78
10
10
ENDCHAR
STARTCHAR 00A6
ENCODING 166
SWIDTH 270 0
DWIDTH 3 0
BBX 1 10 1 -1
BITMAP
80
80
80
80
00
00
80
80
80
80
ENDCHAR
STARTCHAR 00A7
ENCODING 167
SWIDTH 540 0
DWIDTH 6 0
BBX 6 11 0 -2
BITMAP
38
48
48
60
58
88
64
38
08
48
70
ENDCHAR
STARTCHAR 00A8
ENCODING 168
SWIDTH 360 0
DWIDTH 4 0
BBX 3 1 0 7
BITMAP
A0
ENDCHAR
STARTCHAR 00A9
ENCODING 169
SWIDTH 720 0
DWIDTH 8 0
BBX 8 9 0 0
BITMAP
3C
42
99
A5
A1
A5
99
42
3C
ENDCHAR
STARTCHAR 00AA
ENCODING 170
SWIDTH 360 0
DWIDTH 4 0
BBX 4 6 0 3
BITMAP
60
20
E0
70
00
F0
ENDCHAR
STARTCHAR 00AB
ENCODING 171
SWIDTH 540 0
DWIDTH 6 0
BBX 4 4 1 1
BITMAP
40
B0
B0
40
ENDCHAR
STARTCHAR 00AC
ENCODING 172
SWIDTH 540 0
DWIDTH 6 0
BBX 6 3 0 1
BITMAP
FC
04
04
ENDCHAR
STARTCHAR 00AD
ENCODING 173
SWIDTH 360 0
DWIDTH 4 0
BBX 2 1 1 3
BITMAP
C0
ENDCHAR
STARTCHAR 00AE
ENCODING 174
SWIDTH 720 0
DWIDTH 8 0
BBX 8 9 0 0
BITMAP
3C
42
BD
A5
BD
A5
A5
42
3C
ENDCHAR
STARTCHAR 00AF
ENCODING 175
SWIDTH 360 0
DWIDTH 4 0
BBX 3 1 0 7
BITMAP
E0
ENDCHAR
STARTCHAR 00B0
ENCODING 176
SWIDTH 360 0
DWIDTH 4 0
BBX 3 4 1 4
BITMAP
40
A0
A0
40
ENDCHAR
STARTCHAR 00B1
ENCODING 177
SWIDTH 540 0
DWIDTH 6 0
BBX 5 7 1 0
BITMAP
20
20
F8
20
20
00
F8
ENDCHAR
STARTCHAR 00B2
ENCODING 178
SWIDTH 360 0
DWIDTH 4 0
BBX 4 5 0 3
BITMAP
60
90
20
C0
E0
ENDCHAR
STARTCHAR 00B3
ENCODING 179
SWIDTH 360 0
DWIDTH 4 0
BBX 3 5 0 3
BITMAP
60
A0
60
A0
E0
ENDCHAR
STARTCHAR 00B4
ENCODING 180
SWIDTH 360 0
DWIDTH 4 0
BBX 2 2 1 7
BITMAP
40
80
ENDCHAR
STARTCHAR 00B5
ENCODING 181
SWIDTH 540 0
DWIDTH 6 0
BBX 5 8 1 -2
BITMAP
90
90
90
90
90
E8
80
80
ENDCHAR
STARTCHAR 00B6
ENCODING 182
SWIDTH 540 0
DWIDTH 6 0
BBX 5 10 1 -1
BITMAP
78
F0
F0
F0
F0
30
30
30
30
30
ENDCHAR
STARTCHAR 00B7
ENCODING 183
SWIDTH 270 0
DWIDTH 3 0
BBX 1 1 1 3
BITMAP
80
ENDCHAR
STARTCHAR 00B8
ENCODING 184
SWIDTH 360 0
DWIDTH 4 0
BBX 2 1 1 -1
BITMAP
C0
ENDCHAR
STARTCHAR 00B9
ENCODING 185
SWIDTH 360 0
DWIDTH 4 0
BBX 1 3 1 4
BITMAP
80
80
80
ENDCHAR
STARTCHAR 00BA
ENCODING 186
SWIDTH 360 0
DWIDTH 4 0
BBX 4 6 0 3
BITMAP
60
90
90
60
00
60
ENDCHAR
STARTCHAR 00BB
ENCODING 187
SWIDTH 540 0
DWIDTH 6 0
BBX 4 4 1 1
BITMAP
A0
50
50
20
ENDCHAR
STARTCHAR 00BC
ENCODING 188
SWIDTH 810 0
DWIDTH 9 0
BBX 8 8 1 0
BITMAP
84
88
88
92
96
26
47
40
ENDCHAR
STARTCHAR 00BD
ENCODING 189
SWIDTH 810 0
DWIDTH 9 0
BBX 8 8 1 0
BITMAP
84
88
90
97
A1
22
44
87
ENDCHAR
STARTCHAR 00BE
ENCODING 190
SWIDTH 810 0
DWIDTH 9 0
BBX 9 8 0 0
BITMAP
6200
9200
2400
9400
6900
1300
1780
2000
ENDCHAR
STARTCHAR 00BF
ENCODING 191
SWIDTH 630 0
DWIDTH 7 0
BBX 5 8 1 -2
BITMAP
20
00
20
20
40
88
88
70
ENDCHAR
STARTCHAR 00C0
ENCODING 192
SWIDTH 630 0
DWIDTH 7 0
BBX 7 11 0 0
BITMAP
10
00
18
18
28
2C
24
7C
44
42
82
ENDCHAR
STARTCHAR 00C1
ENCODING 193
SWIDTH 630 0
DWIDTH 7 0
BBX 7 11 0 0
BITMAP
08
00
18
18
28
2C
24
7C
44
42
82
ENDCHAR
STARTCHAR 00C2
ENCODING 194
SWIDTH 630 0
DWIDTH 7 0
BBX 7 11 0 0
BITMAP
18
00
18
18
28
2C
24
7C
44
42
82
ENDCHAR
STARTCHAR 00C3
ENCODING 195
SWIDTH 630 0
DWIDTH 7 0
BBX 7 11 0 0
BITMAP
38
00
18
18
28
2C
24
7C
44
42
82
ENDCHAR
STARTCHAR 00C4
ENCODING 196
SWIDTH 630 0
DWIDTH 7 0
BBX 7 11 0 0
BITMAP
28
00
18
18
28
2C
24
7C
44
42
82
ENDCHAR
STARTCHAR 00C5
ENCODING 197
SWIDTH 630 0
DWIDTH 7 0
BBX 7 11 0 0
BITMAP
38
10
18
18
28
2C
24
7C
44
42
82
ENDCHAR
STARTCHAR 00C6
ENCODING 198
SWIDTH 990 0
DWIDTH 11 0
BBX 11 9 0 0
BITMAP
1FC0
1400
1400
2400
27C0
6400
7C00
4400
87E0
ENDCHAR
STARTCHAR 00C7
ENCODING 199
SWIDTH 720 0
DWIDTH 8 0
BBX 6 11 1 -2
BITMAP
78
C4
84
80
80
80
84
84
78
20
30
ENDCHAR
STARTCHAR 00C8
ENCODING 200
SWIDTH 630 0
DWIDTH 7 0
BBX 6 11 1 0
BITMAP
20
00
FC
80
80
80
F8
80
80
80
FC
ENDCHAR
STARTCHAR 00C9
ENCODING 201
SWIDTH 630 0
DWIDTH 7 0
BBX 6 11 1 0
BITMAP
30
00
FC
80
80
80
F8
80
80
80
FC
ENDCHAR
STARTCHAR 00CA
ENCODING 202
SWIDTH 630 0
DWIDTH 7 0
BBX 6 11 1 0
BITMAP
30
00
FC
80
80
80
F8
80
80
80
FC
ENDCHAR
STARTCHAR 00CB
ENCODING 203
SWIDTH 630 0
DWIDTH 7 0
BBX 6 11 1 0
BITMAP
50
00
FC
80
80
80
F8
80
80
80
FC
ENDCHAR
STARTCHAR 00CC
ENCODING 204
SWIDTH 270 0
DWIDTH 3 0
BBX 1 11 1 0
BITMAP
80
00
80
80
80
80
80
80
80
80
80
ENDCHAR
STARTCHAR 00CD
ENCODING 205
SWIDTH 270 0
DWIDTH 3 0
BBX 2 11 1 0
BITMAP
C0
00
80
80
80
80
80
80
80
80
80
ENDCHAR
STARTCHAR 00CE
ENCODING 206
SWIDTH 270 0
DWIDTH 3 0
BBX 3 11 0 0
BITMAP
E0
00
40
40
40
40
40
40
40
40
40
ENDCHAR
STARTCHAR 00CF
ENCODING 207
SWIDTH 270 0
DWIDTH 3 0
BBX 3 11 0 0
BITMAP
A0
00
40
40
40
40
40
40
40
40
40
ENDCHAR
STARTCHAR 00D0
ENCODING 208
SWIDTH 720 0
DWIDTH 8 0
BBX 7 9 0 0
BITMAP
7C
46
42
42
F2
42
42
46
7C
ENDCHAR
STARTCHAR 00D1
ENCODING 209
SWIDTH 720 0
DWIDTH 8 0
BBX 6 11 1 0
BITMAP
38
00
84
C4
C4
A4
B4
94
8C
8C
84
ENDCHAR
STARTCHAR 00D2
ENCODING 210
SWIDTH 810 0
DWIDTH 9 0
BBX 8 11 0 0
BITMAP
10
08
3C
62
41
C1
81
C1
41
62
3C
ENDCHAR
STARTCHAR 00D3
ENCODING 211
SWIDTH 810 0
DWIDTH 9 0
BBX 8 11 0 0
BITMAP
08
00
3C
62
41
C1
81
C1
41
62
3C
ENDCHAR
STARTCHAR 00D4
ENCODING 212
SWIDTH 810 0
DWIDTH 9 0
BBX 8 11 0 0
BITMAP
18
00
3C
62
41
C1
81
C1
41
62
3C
ENDCHAR
STARTCHAR 00D5
ENCODING 213
SWIDTH 810 0
DWIDTH 9 0
BBX 8 11 0 0
BITMAP
1C
00
3C
62
41
C1
81
C1
41
62
3C
ENDCHAR
STARTCHAR 00D6
ENCODING 214
SWIDTH 810 0
DWIDTH 9 0
BBX 8 11 0 0
BITMAP
14
00
3C
62
41
C1
81
C1
41
62
3C
ENDCHAR
STARTCHAR 00D7
ENCODING 215
SWIDTH 540 0
DWIDTH 6 0
BBX 4 5 1 0
BITMAP
80
50
20
50
80
ENDCHAR
STARTCHAR 00D8
ENCODING 216
SWIDTH 810 0
DWIDTH 9 0
BBX 8 9 0 0
BITMAP
3D
62
45
C9
89
D1
61
62
BC
ENDCHAR
STARTCHAR 00D9
ENCODING 217
SWIDTH 720 0
DWIDTH 8 0
BBX 6 11 1 0
BITMAP
20
00
84
84
84
84
84
84
84
84
78
ENDCHAR
STARTCHAR 00DA
ENCODING 218
SWIDTH 720 0
DWIDTH 8 0
BBX 6 11 1 0
BITMAP
10
00
84
84
84
84
84
84
84
84
78
ENDCHAR
STARTCHAR 00DB
ENCODING 219
SWIDTH 720 0
DWIDTH 8 0
BBX 6 11 1 0
BITMAP
30
00
84
84
84
84
84
84
84
84
78
ENDCHAR
STARTCHAR 00DC
ENCODING 220
SWIDTH 720 0
DWIDTH 8 0
BBX 6 11 1 0
BITMAP
38
00
84
84
84
84
84
84
84
84
78
ENDCHAR
STARTCHAR 00DD
ENCODING 221
SWIDTH 630 0
DWIDTH 7 0
BBX 7 11 0 0
BITMAP
18
00
C2
44
24
28
18
10
10
10
10
ENDCHAR
STARTCHAR 00DE
ENCODING 222
SWIDTH 630 0
DWIDTH 7 0
BBX 6 9 1 0
BITMAP
80
F8
8C
84
84
8C
F8
80
80
ENDCHAR
STARTCHAR 00DF
ENCODING 223
SWIDTH 630 0
DWIDTH 7 0
BBX 5 9 1 0
BITMAP
70
88
88
90
B0
88
88
88
B0
ENDCHAR
STARTCHAR 00E0
ENCODING 224
SWIDTH 540 0
DWIDTH 6 0
BBX 6 9 0 0
BITMAP
20
20
00
78
48
08
78
88
7C
ENDCHAR
STARTCHAR 00E1
ENCODING 225
SWIDTH 540 0
DWIDTH 6 0
BBX 6 9 0 0
BITMAP
10
20
00
78
48
08
78
88
7C
ENDCHAR
STARTCHAR 00E2
ENCODING 226
SWIDTH 540 0
DWIDTH 6 0
BBX 6 9 0 0
BITMAP
30
30
00
78
48
08
78
88
7C
ENDCHAR
STARTCHAR 00E3
ENCODING 227
SWIDTH 540 0
DWIDTH 6 0
BBX 6 8 0 0
BITMAP
38
00
78
48
08
78
88
7C
ENDCHAR
STARTCHAR 00E4
ENCODING 228
SWIDTH 540 0
DWIDTH 6 0
BBX 6 8 0 0
BITMAP
38
00
78
48
08
78
88
7C
ENDCHAR
STARTCHAR 00E5
ENCODING 229
SWIDTH 540 0
DWIDTH 6 0
BBX 6 8 0 0
BITMAP
30
00
78
48
08
78
88
7C
ENDCHAR
STARTCHAR 00E6
ENCODING 230
SWIDTH 900 0
DWIDTH 10 0
BBX 9 6 0 0
BITMAP
7F00
4880
3F80
C800
8C80
7700
ENDCHAR
STARTCHAR 00E7
ENCODING 231
SWIDTH 540 0
DWIDTH 6 0
BBX 5 8 0 -2
BITMAP
70
48
80
80
48
78
20
30
ENDCHAR
STARTCHAR 00E8
ENCODING 232
SWIDTH 540 0
DWIDTH 6 0
BBX 6 9 0 0
BITMAP
20
10
00
78
4C
FC
80
48
78
ENDCHAR
STARTCHAR 00E9
ENCODING 233
SWIDTH 540 0
DWIDTH 6 0
BBX 6 9 0 0
BITMAP
10
10
00
78
4C
FC
80
48
78
ENDCHAR
STARTCHAR 00EA
ENCODING 234
SWIDTH 540 0
DWIDTH 6 0
BBX 6 9 0 0
BITMAP
30
30
00
78
4C
FC
80
48
78
ENDCHAR
STARTCHAR 00EB
ENCODING 235
SWIDTH 540 0
DWIDTH 6 0
BBX 6 8 0 0
BITMAP
38
00
78
4C
FC
80
48
78
ENDCHAR
STARTCHAR 00EC
ENCODING 236
SWIDTH 270 0
DWIDTH 3 0
BBX 2 9 0 0
BITMAP
80
40
00
40
40
40
40
40
40
ENDCHAR
STARTCHAR 00ED
ENCODING 237
SWIDTH 270 0
DWIDTH 3 0
BBX 2 9 1 0
BITMAP
40
80
00
80
80
80
80
80
80
ENDCHAR
STARTCHAR 00EE
ENCODING 238
SWIDTH 270 0
DWIDTH 3 0
BBX 3 9 0 0
BITMAP
40
A0
00
40
40
40
40
40
40
ENDCHAR
STARTCHAR 00EF
ENCODING 239
SWIDTH 270 0
DWIDTH 3 0
BBX 3 8 0 0
BITMAP
A0
00
40
40
40
40
40
40
ENDCHAR
STARTCHAR 00F0
ENCODING 240
SWIDTH 540 0
DWIDTH 6 0
BBX 6 8 0 0
BITMAP
70
50
78
48
84
84
48
78
ENDCHAR
STARTCHAR 00F1
ENCODING 241
SWIDTH 540 0
DWIDTH 6 0
BBX 4 8 1 0
BITMAP
70
00
F0
90
90
90
90
90
ENDCHAR
STARTCHAR 00F2
ENCODING 242
SWIDTH 540 0
DWIDTH 6 0
BBX 6 9 0 0
BITMAP
20
20
00
78
48
84
84
48
78
ENDCHAR
STARTCHAR 00F3
ENCODING 243
SWIDTH 540 0
DWIDTH 6 0
BBX 6 9 0 0
BITMAP
10
20
00
78
48
84
84
48
78
ENDCHAR
STARTCHAR 00F4
ENCODING 244
SWIDTH 540 0
DWIDTH 6 0
BBX 6 9 0 0
BITMAP
30
30
00
78
48
84
84
48
78
ENDCHAR
STARTCHAR 00F5
ENCODING 245
SWIDTH 540 0
DWIDTH 6 0
BBX 6 8 0 0
BITMAP
38
00
78
48
84
84
48
78
ENDCHAR
STARTCHAR 00F6
ENCODING 246
SWIDTH 540 0
DWIDTH 6 0
BBX 6 8 0 0
BITMAP
38
00
78
48
84
84
48
78
ENDCHAR
STARTCHAR 00F7
ENCODING 247
SWIDTH 540 0
DWIDTH 6 0
BBX 5 5 1 0
BITMAP
20
00
F8
00
20
ENDCHAR
STARTCHAR 00F8
ENCODING 248
SWIDTH 630 0
DWIDTH 7 0
BBX 6 6 0 0
BITMAP
7C
48
94
A4
48
F8
ENDCHAR
STARTCHAR 00F9
ENCODING 249
SWIDTH 540 0
DWIDTH 6 0
BBX 4 9 1 0
BITMAP
40
20
00
90
90
90
90
90
F0
ENDCHAR
STARTCHAR 00FA
ENCODING 250
SWIDTH 540 0
DWIDTH 6 0
BBX 4 9 1 0
BITMAP
20
40
00
90
90
90
90
90
F0
ENDCHAR
STARTCHAR 00FB
ENCODING 251
SWIDTH 540 0
DWIDTH 6 0
BBX 4 9 1 0
BITMAP
60
00
00
90
90
90
90
90
F0
ENDCHAR
STARTCHAR 00FC
ENCODING 252
SWIDTH 540 0
DWIDTH 6 0
BBX 4 8 1 0
BITMAP
70
00
90
90
90
90
90
F0
ENDCHAR
STARTCHAR 00FD
ENCODING 253
SWIDTH 540 0
DWIDTH 6 0
BBX 5 11 0 -2
BITMAP
10
20
00
88
48
50
50
30
20
20
40
ENDCHAR
STARTCHAR 00FE
ENCODING 254
SWIDTH 540 0
DWIDTH 6 0
BBX 5 10 1 -2
BITMAP
80
80
F0
98
88
88
98
F0
80
80
ENDCHAR
STARTCHAR 00FF
ENCODING 255
SWIDTH 540 0
DWIDTH 6 0
BBX 5 10 0 -2
BITMAP
50
00
88
48
50
50
30
20
20
40
ENDCHAR
STARTCHAR 0100
ENCODING 256
SWIDTH 630 0
DWIDTH 7 0
BBX 7 11 0 0
BITMAP
38
00
18
18
28
2C
24
7C
44
42
82
ENDCHAR
STARTCHAR 0101
ENCODING 257
SWIDTH 540 0
DWIDTH 6 0
BBX 6 8 0 0
BITMAP
38
00
78
48
08
78
88
7C
ENDCHAR
STARTCHAR 0102
ENCODING 258
SWIDTH 630 0
DWIDTH 7 0
BBX 7 11 0 0
BITMAP
38
00
18
18
28
2C
24
7C
44
42
82
ENDCHAR
STARTCHAR 0103
ENCODING 259
SWIDTH 540 0
DWIDTH 6 0
BBX 6 9 0 0
BITMAP
48
30
00
78
48
08
78
88
7C
ENDCHAR
STARTCHAR 0104
ENCODING 260
SWIDTH 630 0
DWIDTH 7 0
BBX 7 11 0 -2
BITMAP
18
18
28
2C
24
7C
44
42
82
02
06
ENDCHAR
STARTCHAR 0105
ENCODING 261
SWIDTH 540 0
DWIDTH 6 0
BBX 7 8 0 -2
BITMAP
78
48
08
78
88
7C
08
0E
ENDCHAR
STARTCHAR 0106
ENCODING 262
SWIDTH 720 0
DWIDTH 8 0
BBX 6 11 1 0
BITMAP
10
00
78
C4
84
80
80
80
84
C4
78
ENDCHAR
STARTCHAR 0107
ENCODING 263
SWIDTH 540 0
DWIDTH 6 0
BBX 5 9 0 0
BITMAP
10
20
00
70
48
80
80
48
70
ENDCHAR
STARTCHAR 0108
ENCODING 264
SWIDTH 720 0
DWIDTH 8 0
BBX 6 11 1 0
BITMAP
30
00
78
C4
84
80
80
80
84
C4
78
ENDCHAR
STARTCHAR 0109
ENCODING 265
SWIDTH 540 0
DWIDTH 6 0
BBX 5 9 0 0
BITMAP
30
30
00
70
48
80
80
48
70
ENDCHAR
STARTCHAR 010A
ENCODING 266
SWIDTH 720 0
DWIDTH 8 0
BBX 6 11 1 0
BITMAP
10
00
78
C4
84
80
80
80
84
C4
78
ENDCHAR
STARTCHAR 010B
ENCODING 267
SWIDTH 540 0
DWIDTH 6 0
BBX 5 8 0 0
BITMAP
30
00
70
48
80
80
48
70
ENDCHAR
STARTCHAR 010C
ENCODING 268
SWIDTH 720 0
DWIDTH 8 0
BBX 6 11 1 0
BITMAP
30
00
78
C4
84
80
80
80
84
C4
78
ENDCHAR
STARTCHAR 010D
ENCODING 269
SWIDTH 540 0
DWIDTH 6 0
BBX 5 9 0 0
BITMAP
50
30
00
70
48
80
80
48
70
ENDCHAR
STARTCHAR 010E
ENCODING 270
SWIDTH 720 0
DWIDTH 8 0
BBX 6 11 1 0
BITMAP
30
00
F8
8C
84
84
84
84
84
8C
F8
ENDCHAR
STARTCHAR 010F
ENCODING 271
SWIDTH 630 0
DWIDTH 7 0
BBX 7 9 0 0
BITMAP
0A
0A
08
78
48
88
88
48
78
ENDCHAR
STARTCHAR 0110
ENCODING 272
SWIDTH 720 0
DWIDTH 8 0
BBX 7 9 0 0
BITMAP
7C
46
42
42
F2
42
42
46
7C
ENDCHAR
STARTCHAR 0111
ENCODING 273
SWIDTH 540 0
DWIDTH 6 0
BBX 6 9 0 0
BITMAP
08
1C
08
78
48
88
88
48
78
ENDCHAR
STARTCHAR 0112
ENCODING 274
SWIDTH 630 0
DWIDTH 7 0
BBX 6 11 1 0
BITMAP
70
00
FC
80
80
80
F8
80
80
80
FC
ENDCHAR
STARTCHAR 0113
ENCODING 275
SWIDTH 540 0
DWIDTH 6 0
BBX 6 8 0 0
BITMAP
38
00
78
4C
FC
80
48
78
ENDCHAR
STARTCHAR 0114
ENCODING 276
SWIDTH 630 0
DWIDTH 7 0
BBX 6 11 1 0
BITMAP
70
00
FC
80
80
80
F8
80
80
80
FC
ENDCHAR
STARTCHAR 0115
ENCODING 277
SWIDTH 540 0
DWIDTH 6 0
BBX 6 9 0 0
BITMAP
48
30
00
78
4C
FC
80
48
78
ENDCHAR
STARTCHAR 0116
ENCODING 278
SWIDTH 630 0
DWIDTH 7 0
BBX 6 11 1 0
BITMAP
20
00
FC
80
80
80
F8
80
80
80
FC
ENDCHAR
STARTCHAR 0117
ENCODING 279
SWIDTH 540 0
DWIDTH 6 0
BBX 6 8 0 0
BITMAP
10
00
78
4C
FC
80
48
78
ENDCHAR
STARTCHAR 0118
ENCODING 280
SWIDTH 630 0
DWIDTH 7 0
BBX 6 11 1 -2
BITMAP
FC
80
80
80
F8
80
80
80
FC
08
08
ENDCHAR
STARTCHAR 0119
ENCODING 281
SWIDTH 540 0
DWIDTH 6 0
BBX 6 8 0 -2
BITMAP
78
4C
FC
80
48
78
10
18
ENDCHAR
STARTCHAR 011A
ENCODING 282
SWIDTH 630 0
DWIDTH 7 0
BBX 6 11 1 0
BITMAP
30
00
FC
80
80
80
F8
80
80
80
FC
ENDCHAR
STARTCHAR 011B
ENCODING 283
SWIDTH 540 0
DWIDTH 6 0
BBX 6 9 0 0
BITMAP
28
30
00
78
4C
FC
80
48
78
ENDCHAR
STARTCHAR 011C
ENCODING 284
SWIDTH 810 0
DWIDTH 9 0
BBX 8 11 0 0
BITMAP
18
00
3C
62
41
40
CF
41
41
63
3D
ENDCHAR
STARTCHAR 011D
ENCODING 285
SWIDTH 540 0
DWIDTH 6 0
BBX 5 11 0 -2
BITMAP
30
30
00
78
48
88
88
48
78
48
70
ENDCHAR
STARTCHAR 011E
ENCODING 286
SWIDTH 810 0
DWIDTH 9 0
BBX 8 11 0 0
BITMAP
1C
00
3C
62
41
40
CF
41
41
63
3D
ENDCHAR
STARTCHAR 011F
ENCODING 287
SWIDTH 540 0
DWIDTH 6 0
BBX 5 11 0 -2
BITMAP
48
30
00
78
48
88
88
48
78
48
70
ENDCHAR
STARTCHAR 0120
ENCODING 288
SWIDTH 810 0
DWIDTH 9 0
BBX 8 11 0 0
BITMAP
08
00
3C
62
41
40
CF
41
41
63
3D
ENDCHAR
STARTCHAR 0121
ENCODING 289
SWIDTH 540 0
DWIDTH 6 0
BBX 5 10 0 -2
BITMAP
30
00
78
48
88
88
48
78
48
70
ENDCHAR
STARTCHAR 0122
ENCODING 290
SWIDTH 810 0
DWIDTH 9 0
BBX 8 12 0 -3
BITMAP
3C
62
41
40
CF
41
41
63
3D
00
08
08
ENDCHAR
STARTCHAR 0123
ENCODING 291
SWIDTH 540 0
DWIDTH 6 0
BBX 5 11 0 -2
BITMAP
20
20
00
78
48
88
88
48
78
48
70
ENDCHAR
STARTCHAR 0124
ENCODING 292
SWIDTH 720 0
DWIDTH 8 0
BBX 6 11 1 0
BITMAP
30
00
84
84
84
84
FC
84
84
84
84
ENDCHAR
STARTCHAR 0125
ENCODING 293
SWIDTH 540 0
DWIDTH 6 0
BBX 5 11 0 0
BITMAP
C0
00
40
40
40
78
48
48
48
48
48
ENDCHAR
STARTCHAR 0126
ENCODING 294
SWIDTH 720 0
DWIDTH 8 0
BBX 8 9 0 0
BITMAP
42
42
FF
42
7E
42
42
42
42
ENDCHAR
STARTCHAR 0127
ENCODING 295
SWIDTH 540 0
DWIDTH 6 0
BBX 5 9 0 0
BITMAP
40
F0
40
78
48
48
48
48
48
ENDCHAR
STARTCHAR 0128
ENCODING 296
SWIDTH 270 0
DWIDTH 3 0
BBX 3 11 0 0
BITMAP
E0
00
40
40
40
40
40
40
40
40
40
ENDCHAR
STARTCHAR 0129
ENCODING 297
SWIDTH 270 0
DWIDTH 3 0
BBX 3 8 0 0
BITMAP
E0
00
40
40
40
40
40
40
ENDCHAR
STARTCHAR 012A
ENCODING 298
SWIDTH 270 0
DWIDTH 3 0
BBX 3 11 0 0
BITMAP
E0
00
40
40
40
40
40
40
40
40
40
ENDCHAR
STARTCHAR 012B
ENCODING 299
SWIDTH 270 0
DWIDTH 3 0
BBX 3 8 0 0
BITMAP
E0
00
40
40
40
40
40
40
ENDCHAR
STARTCHAR 012C
ENCODING 300
SWIDTH 270 0
DWIDTH 3 0
BBX 3 11 0 0
BITMAP
E0
00
40
40
40
40
40
40
40
40
40
ENDCHAR
STARTCHAR 012D
ENCODING 301
SWIDTH 270 0
DWIDTH 3 0
BBX 3 9 0 0
BITMAP
A0
E0
00
40
40
40
40
40
40
ENDCHAR
STARTCHAR 012E
ENCODING 302
SWIDTH 270 0
DWIDTH 3 0
BBX 1 11 1 -2
BITMAP
80
80
80
80
80
80
80
80
80
80
80
ENDCHAR
STARTCHAR 012F
ENCODING 303
SWIDTH 180 0
DWIDTH 2 0
BBX 2 11 0 -2
BITMAP
40
00
00
40
40
40
40
40
40
80
C0
ENDCHAR
STARTCHAR 0130
ENCODING 304
SWIDTH 270 0
DWIDTH 3 0
BBX 1 11 1 0
BITMAP
80
00
80
80
80
80
80
80
80
80
80
ENDCHAR
STARTCHAR 0131
ENCODING 305
SWIDTH 270 0
DWIDTH 3 0
BBX 1 6 1 0
BITMAP
80
80
80
80
80
80
ENDCHAR
STARTCHAR 0132
ENCODING 306
SWIDTH 720 0
DWIDTH 8 0
BBX 6 9 1 0
BITMAP
84
84
84
84
84
84
A4
A4
BC
ENDCHAR
STARTCHAR 0133
ENCODING 307
SWIDTH 450 0
DWIDTH 5 0
BBX 3 12 1 -3
BITMAP
A0
00
00
A0
A0
A0
A0
A0
A0
20
20
60
ENDCHAR
STARTCHAR 0134
ENCODING 308
SWIDTH 540 0
DWIDTH 6 0
BBX 5 11 0 0
BITMAP
18
00
08
08
08
08
08
08
88
98
70
ENDCHAR
STARTCHAR 0135
ENCODING 309
SWIDTH 180 0
DWIDTH 2 0
BBX 2 12 0 -3
BITMAP
C0
C0
00
40
40
40
40
40
40
40
40
80
ENDCHAR
STARTCHAR 0136
ENCODING 310
SWIDTH 630 0
DWIDTH 7 0
BBX 6 11 1 -3
BITMAP
8C
88
90
A0
E0
90
88
88
84
00
20
ENDCHAR
STARTCHAR 0137
ENCODING 311
SWIDTH 540 0
DWIDTH 6 0
BBX 4 11 1 -3
BITMAP
80
80
80
90
A0
C0
A0
90
90
00
60
ENDCHAR
STARTCHAR 0138
ENCODING 312
SWIDTH 540 0
DWIDTH 6 0
BBX 5 6 0 0
BITMAP
88
90
A0
E0
90
88
ENDCHAR
STARTCHAR 0139
ENCODING 313
SWIDTH 540 0
DWIDTH 6 0
BBX 5 11 1 0
BITMAP
C0
00
80
80
80
80
80
80
80
80
F8
ENDCHAR
STARTCHAR 013A
ENCODING 314
SWIDTH 180 0
DWIDTH 2 0
BBX 2 11 1 0
BITMAP
C0
00
80
80
80
80
80
80
80
80
80
ENDCHAR
STARTCHAR 013B
ENCODING 315
SWIDTH 540 0
DWIDTH 6 0
BBX 5 12 1 -3
BITMAP
80
80
80
80
80
80
80
80
F8
00
20
20
ENDCHAR
STARTCHAR 013C
ENCODING 316
SWIDTH 180 0
DWIDTH 2 0
BBX 1 12 1 -3
BITMAP
80
80
80
80
80
80
80
80
80
00
80
80
ENDCHAR
STARTCHAR 013D
ENCODING 317
SWIDTH 540 0
DWIDTH 6 0
BBX 5 9 1 0
BITMAP
A0
A0
A0
80
80
80
80
80
F8
ENDCHAR
STARTCHAR 013E
ENCODING 318
SWIDTH 270 0
DWIDTH 3 0
BBX 2 9 1 0
BITMAP
C0
C0
C0
80
80
80
80
80
80
ENDCHAR
STARTCHAR 013F
ENCODING 319
SWIDTH 540 0
DWIDTH 6 0
BBX 5 9 1 0
BITMAP
80
80
80
80
90
80
80
80
F8
ENDCHAR
STARTCHAR 0140
ENCODING 320
SWIDTH 360 0
DWIDTH 4 0
BBX 3 9 1 0
BITMAP
80
80
80
80
E0
80
80
80
80
ENDCHAR
STARTCHAR 0141
ENCODING 321
SWIDTH 540 0
DWIDTH 6 0
BBX 6 9 0 0
BITMAP
40
40
40
50
60
C0
40
40
7C
ENDCHAR
STARTCHAR 0142
ENCODING 322
SWIDTH 180 0
DWIDTH 2 0
BBX 2 9 0 0
BITMAP
40
40
40
40
40
C0
40
40
40
ENDCHAR
STARTCHAR 0143
ENCODING 323
SWIDTH 720 0
DWIDTH 8 0
BBX 6 11 1 0
BITMAP
10
00
84
C4
C4
A4
B4
94
8C
8C
84
ENDCHAR
STARTCHAR 0144
ENCODING 324
SWIDTH 540 0
DWIDTH 6 0
BBX 4 9 1 0
BITMAP
20
40
00
F0
90
90
90
90
90
ENDCHAR
STARTCHAR 0145
ENCODING 325
SWIDTH 720 0
DWIDTH 8 0
BBX 6 11 1 -3
BITMAP
84
C4
C4
A4
B4
94
8C
8C
84
00
20
ENDCHAR
STARTCHAR 0146
ENCODING 326
SWIDTH 540 0
DWIDTH 6 0
BBX 4 9 1 -3
BITMAP
F0
90
90
90
90
90
00
20
20
ENDCHAR
STARTCHAR 0147
ENCODING 327
SWIDTH 720 0
DWIDTH 8 0
BBX 6 11 1 0
BITMAP
30
00
84
C4
C4
A4
B4
94
8C
8C
84
ENDCHAR
STARTCHAR 0148
ENCODING 328
SWIDTH 540 0
DWIDTH 6 0
BBX 4 9 1 0
BITMAP
60
60
00
F0
90
90
90
90
90
ENDCHAR
STARTCHAR 0149
ENCODING 329
SWIDTH 630 0
DWIDTH 7 0
BBX 6 8 0 0
BITMAP
80
80
5C
64
44
44
44
44
ENDCHAR
STARTCHAR 014A
ENCODING 330
SWIDTH 720 0
DWIDTH 8 0
BBX 6 12 1 -3
BITMAP
B8
C4
84
84
84
84
84
84
84
04
04
0C
ENDCHAR
STARTCHAR 014B
ENCODING 331
SWIDTH 540 0
DWIDTH 6 0
BBX 4 9 1 -3
BITMAP
F0
90
90
90
90
90
10
10
10
ENDCHAR
STARTCHAR 014C
ENCODING 332
SWIDTH 810 0
DWIDTH 9 0
BBX 8 11 0 0
BITMAP
1C
00
3C
62
41
C1
81
C1
41
62
3C
ENDCHAR
STARTCHAR 014D
ENCODING 333
SWIDTH 540 0
DWIDTH 6 0
BBX 6 8 0 0
BITMAP
78
00
78
48
84
84
48
78
ENDCHAR
STARTCHAR 014E
ENCODING 334
SWIDTH 810 0
DWIDTH 9 0
BBX 8 11 0 0
BITMAP
1C
00
3C
62
41
C1
81
C1
41
62
3C
ENDCHAR
STARTCHAR 014F
ENCODING 335
SWIDTH 540 0
DWIDTH 6 0
BBX 6 9 0 0
BITMAP
48
30
00
78
48
84
84
48
78
ENDCHAR
STARTCHAR 0150
ENCODING 336
SWIDTH 810 0
DWIDTH 9 0
BBX 8 11 0 0
BITMAP
0A
14
3C
62
41
C1
81
C1
41
62
3C
ENDCHAR
STARTCHAR 0151
ENCODING 337
SWIDTH 540 0
DWIDTH 6 0
BBX 6 9 0 0
BITMAP
38
28
00
78
48
84
84
48
78
ENDCHAR
STARTCHAR 0152
ENCODING 338
SWIDTH 990 0
DWIDTH 11 0
BBX 11 9 0 0
BITMAP
3BE0
4600
4200
4200
C3E0
4200
4200
4600
3BE0
ENDCHAR
STARTCHAR 0153
ENCODING 339
SWIDTH 900 0
DWIDTH 10 0
BBX 10 6 0 0
BITMAP
7B80
4C40
87C0
8400
4C40
7B80
ENDCHAR
STARTCHAR 0154
ENCODING 340
SWIDTH 720 0
DWIDTH 8 0
BBX 6 11 1 0
BITMAP
10
00
F8
84
84
84
F8
84
84
84
84
ENDCHAR
STARTCHAR 0155
ENCODING 341
SWIDTH 360 0
DWIDTH 4 0
BBX 3 9 1 0
BITMAP
40
80
00
E0
80
80
80
80
80
ENDCHAR
STARTCHAR 0156
ENCODING 342
SWIDTH 720 0
DWIDTH 8 0
BBX 6 12 1 -3
BITMAP
F8
84
84
84
F8
84
84
84
84
00
10
10
ENDCHAR
STARTCHAR 0157
ENCODING 343
SWIDTH 360 0
DWIDTH 4 0
BBX 3 9 1 -3
BITMAP
E0
80
80
80
80
80
00
80
80
ENDCHAR
STARTCHAR 0158
ENCODING 344
SWIDTH 720 0
DWIDTH 8 0
BBX 6 11 1 0
BITMAP
30
00
F8
84
84
84
F8
84
84
84
84
ENDCHAR
STARTCHAR 0159
ENCODING 345
SWIDTH 360 0
DWIDTH 4 0
BBX 3 9 1 0
BITMAP
C0
C0
00
E0
80
80
80
80
80
ENDCHAR
STARTCHAR 015A
ENCODING 346
SWIDTH 630 0
DWIDTH 7 0
BBX 6 11 1 0
BITMAP
10
20
78
88
84
C0
78
0C
84
84
78
ENDCHAR
STARTCHAR 015B
ENCODING 347
SWIDTH 540 0
DWIDTH 6 0
BBX 5 9 0 0
BITMAP
10
20
00
70
48
60
18
88
70
ENDCHAR
STARTCHAR 015C
ENCODING 348
SWIDTH 630 0
DWIDTH 7 0
BBX 6 11 1 0
BITMAP
30
00
78
88
84
C0
78
0C
84
84
78
ENDCHAR
STARTCHAR 015D
ENCODING 349
SWIDTH 540 0
DWIDTH 6 0
BBX 5 9 0 0
BITMAP
30
50
00
70
48
60
18
88
70
ENDCHAR
STARTCHAR 015E
ENCODING 350
SWIDTH 630 0
DWIDTH 7 0
BBX 6 11 1 -2
BITMAP
78
88
84
C0
78
0C
84
84
F8
20
30
ENDCHAR
STARTCHAR 015F
ENCODING 351
SWIDTH 540 0
DWIDTH 6 0
BBX 5 8 0 -2
BITMAP
70
48
40
38
88
78
20
70
ENDCHAR
STARTCHAR 0160
ENCODING 352
SWIDTH 630 0
DWIDTH 7 0
BBX 6 11 1 0
BITMAP
50
20
78
88
84
C0
78
0C
84
84
78
ENDCHAR
STARTCHAR 0161
ENCODING 353
SWIDTH 540 0
DWIDTH 6 0
BBX 5 9 0 0
BITMAP
50
30
00
70
48
60
18
88
70
ENDCHAR
STARTCHAR 0162
ENCODING 354
SWIDTH 630 0
DWIDTH 7 0
BBX 7 11 0 -2
BITMAP
FE
10
10
10
10
10
10
10
10
10
18
ENDCHAR
STARTCHAR 0163
ENCODING 355
SWIDTH 270 0
DWIDTH 3 0
BBX 3 10 0 -2
BITMAP
40
40
E0
40
40
40
40
60
60
E0
ENDCHAR
STARTCHAR 0164
ENCODING 356
SWIDTH 630 0
DWIDTH 7 0
BBX 7 11 0 0
BITMAP
38
00
FE
10
10
10
10
10
10
10
10
ENDCHAR
STARTCHAR 0165
ENCODING 357
SWIDTH 360 0
DWIDTH 4 0
BBX 4 9 0 0
BITMAP
30
50
40
E0
40
40
40
40
60
ENDCHAR
STARTCHAR 0166
ENCODING 358
SWIDTH 630 0
DWIDTH 7 0
BBX 7 9 0 0
BITMAP
FE
10
10
7C
10
10
10
10
10
ENDCHAR
STARTCHAR 0167
ENCODING 359
SWIDTH 270 0
DWIDTH 3 0
BBX 3 8 0 0
BITMAP
40
40
E0
E0
40
40
40
60
ENDCHAR
STARTCHAR 0168
ENCODING 360
SWIDTH 720 0
DWIDTH 8 0
BBX 6 11 1 0
BITMAP
78
00
84
84
84
84
84
84
84
84
78
ENDCHAR
STARTCHAR 0169
ENCODING 361
SWIDTH 540 0
DWIDTH 6 0
BBX 4 8 1 0
BITMAP
70
00
90
90
90
90
90
F0
ENDCHAR
STARTCHAR 016A
ENCODING 362
SWIDTH 720 0
DWIDTH 8 0
BBX 6 11 1 0
BITMAP
38
00
84
84
84
84
84
84
84
84
78
ENDCHAR
STARTCHAR 016B
ENCODING 363
SWIDTH 540 0
DWIDTH 6 0
BBX 4 8 1 0
BITMAP
70
00
90
90
90
90
90
F0
ENDCHAR
STARTCHAR 016C
ENCODING 364
SWIDTH 720 0
DWIDTH 8 0
BBX 6 11 1 0
BITMAP
30
00
84
84
84
84
84
84
84
84
78
ENDCHAR
STARTCHAR 016D
ENCODING 365
SWIDTH 540 0
DWIDTH 6 0
BBX 4 9 1 0
BITMAP
90
60
00
90
90
90
90
90
F0
ENDCHAR
STARTCHAR 016E
ENCODING 366
SWIDTH 720 0
DWIDTH 8 0
BBX 6 11 1 0
BITMAP
30
00
84
84
84
84
84
84
84
84
78
ENDCHAR
STARTCHAR 016F
ENCODING 367
SWIDTH 540 0
DWIDTH 6 0
BBX 4 8 1 0
BITMAP
60
00
90
90
90
90
90
F0
ENDCHAR
STARTCHAR 0170
ENCODING 368
SWIDTH 720 0
DWIDTH 8 0
BBX 6 11 1 0
BITMAP
28
00
84
84
84
84
84
84
84
84
78
ENDCHAR
STARTCHAR 0171
ENCODING 369
SWIDTH 540 0
DWIDTH 6 0
BBX 4 9 1 0
BITMAP
50
50
00
90
90
90
90
90
F0
ENDCHAR
STARTCHAR 0172
ENCODING 370
SWIDTH 720 0
DWIDTH 8 0
BBX 6 11 1 -2
BITMAP
84
84
84
84
84
84
84
84
78
10
0C
ENDCHAR
STARTCHAR 0173
ENCODING 371
SWIDTH 540 0
DWIDTH 6 0
BBX 5 8 1 -2
BITMAP
90
90
90
90
90
F0
10
18
ENDCHAR
STARTCHAR 0174
ENCODING 372
SWIDTH 900 0
DWIDTH 10 0
BBX 10 11 0 0
BITMAP
0C00
0000
8440
4C40
4C40
4AC0
4A80
3280
3280
3180
3100
ENDCHAR
STARTCHAR 0175
ENCODING 373
SWIDTH 720 0
DWIDTH 8 0
BBX 8 9 0 0
BITMAP
18
28
00
99
9A
5A
6A
66
24
ENDCHAR
STARTCHAR 0176
ENCODING 374
SWIDTH 630 0
DWIDTH 7 0
BBX 7 11 0 0
BITMAP
18
00
C2
44
24
28
18
10
10
10
10
ENDCHAR
STARTCHAR 0177
ENCODING 375
SWIDTH 540 0
DWIDTH 6 0
BBX 5 11 0 -2
BITMAP
30
50
00
88
48
50
50
30
20
20
40
ENDCHAR
STARTCHAR 0178
ENCODING 376
SWIDTH 630 0
DWIDTH 7 0
BBX 7 11 0 0
BITMAP
28
00
C2
44
24
28
18
10
10
10
10
ENDCHAR
STARTCHAR 0179
ENCODING 377
SWIDTH 630 0
DWIDTH 7 0
BBX 6 11 0 0
BITMAP
18
00
7C
04
08
18
10
20
60
40
FC
ENDCHAR
STARTCHAR 017A
ENCODING 378
SWIDTH 540 0
DWIDTH 6 0
BBX 5 9 0 0
BITMAP
10
20
00
78
10
30
20
40
F8
ENDCHAR
STARTCHAR 017B
ENCODING 379
SWIDTH 630 0
DWIDTH 7 0
BBX 6 11 0 0
BITMAP
10
00
7C
04
08
18
10
20
60
40
FC
ENDCHAR
STARTCHAR 017C
ENCODING 380
SWIDTH 540 0
DWIDTH 6 0
BBX 5 8 0 0
BITMAP
20
00
78
10
30
20
40
F8
ENDCHAR
STARTCHAR 017D
ENCODING 381
SWIDTH 630 0
DWIDTH 7 0
BBX 6 11 0 0
BITMAP
28
10
7C
04
08
18
10
20
60
40
FC
ENDCHAR
STARTCHAR 017E
ENCODING 382
SWIDTH 540 0
DWIDTH 6 0
BBX 5 9 0 0
BITMAP
50
30
00
78
10
30
20
40
F8
ENDCHAR
STARTCHAR 017F
ENCODING 383
SWIDTH 180 0
DWIDTH 2 0
BBX 3 9 0 0
BITMAP
60
40
40
C0
40
40
40
40
40
ENDCHAR
STARTCHAR 0192
ENCODING 402
SWIDTH 540 0
DWIDTH 6 0
BBX 6 11 0 -2
BITMAP
0C
10
10
38
10
10
20
20
20
20
C0
ENDCHAR
STARTCHAR 01FA
ENCODING 506
SWIDTH 630 0
DWIDTH 7 0
BBX 7 13 0 0
BITMAP
10
20
38
10
18
18
28
2C
24
7C
44
42
82
ENDCHAR
STARTCHAR 01FB
ENCODING 507
SWIDTH 540 0
DWIDTH 6 0
BBX 6 10 0 0
BITMAP
20
00
30
00
78
48
08
78
88
7C
ENDCHAR
STARTCHAR 01FC
ENCODING 508
SWIDTH 990 0
DWIDTH 11 0
BBX 11 11 0 0
BITMAP
0300
0000
1FC0
1400
1400
2400
27C0
6400
7C00
4400
87E0
ENDCHAR
STARTCHAR 01FD
ENCODING 509
SWIDTH 900 0
DWIDTH 10 0
BBX 9 9 0 0
BITMAP
0400
0800
0000
7F00
4880
3F80
C800
8C80
7700
ENDCHAR
STARTCHAR 01FE
ENCODING 510
SWIDTH 810 0
DWIDTH 9 0
BBX 8 11 0 0
BITMAP
08
00
3D
62
45
C9
89
D1
61
62
BC
ENDCHAR
STARTCHAR 01FF
ENCODING 511
SWIDTH 630 0
DWIDTH 7 0
BBX 6 8 0 0
BITMAP
10
00
7C
48
94
A4
48
F8
ENDCHAR
STARTCHAR 0218
ENCODING 536
SWIDTH 630 0
DWIDTH 7 0
BBX 6 11 1 -3
BITMAP
78
88
84
C0
78
0C
84
84
78
00
20
ENDCHAR
STARTCHAR 0219
ENCODING 537
SWIDTH 540 0
DWIDTH 6 0
BBX 5 8 0 -3
BITMAP
70
48
60
18
88
70
00
20
ENDCHAR
STARTCHAR 021A
ENCODING 538
SWIDTH 630 0
DWIDTH 7 0
BBX 7 12 0 -3
BITMAP
FE
10
10
10
10
10
10
10
10
00
10
10
ENDCHAR
STARTCHAR 021B
ENCODING 539
SWIDTH 270 0
DWIDTH 3 0
BBX 3 10 0 -3
BITMAP
40
40
E0
40
40
40
40
60
00
40
ENDCHAR
STARTCHAR 02C6
ENCODING 710
SWIDTH 360 0
DWIDTH 4 0
BBX 3 2 0 7
BITMAP
60
80
ENDCHAR
STARTCHAR 02C7
ENCODING 711
SWIDTH 360 0
DWIDTH 4 0
BBX 3 2 0 7
BITMAP
A0
40
ENDCHAR
STARTCHAR 02C9
ENCODING 713
SWIDTH 360 0
DWIDTH 4 0
BBX 3 1 0 7
BITMAP
E0
ENDCHAR
STARTCHAR 02D8
ENCODING 728
SWIDTH 360 0
DWIDTH 4 0
BBX 3 2 0 7
BITMAP
A0
60
ENDCHAR
STARTCHAR 02D9
ENCODING 729
SWIDTH 360 0
DWIDTH 4 0
BBX 1 1 1 7
BITMAP
80
ENDCHAR
STARTCHAR 02DA
ENCODING 730
SWIDTH 360 0
DWIDTH 4 0
BBX 2 1 1 7
BITMAP
C0
ENDCHAR
STARTCHAR 02DB
ENCODING 731
SWIDTH 360 0
DWIDTH 4 0
BBX 1 2 1 -2
BITMAP
80
80
ENDCHAR
STARTCHAR 02DC
ENCODING 732
SWIDTH 360 0
DWIDTH 4 0
BBX 3 1 0 7
BITMAP
E0
ENDCHAR
STARTCHAR 02DD
ENCODING 733
SWIDTH 360 0
DWIDTH 4 0
BBX 3 1 0 7
BITMAP
A0
ENDCHAR
STARTCHAR 0384
ENCODING 900
SWIDTH 360 0
DWIDTH 4 0
BBX 1 2 1 6
BITMAP
80
80
ENDCHAR
STARTCHAR 0385
ENCODING 901
SWIDTH 360 0
DWIDTH 4 0
BBX 3 3 0 7
BITMAP
40
40
A0
ENDCHAR
STARTCHAR 0386
ENCODING 902
SWIDTH 630 0
DWIDTH 7 0
BBX 7 9 0 0
BITMAP
58
98
28
2C
24
7C
44
42
82
ENDCHAR
STARTCHAR 0387
ENCODING 903
SWIDTH 270 0
DWIDTH 3 0
BBX 1 1 1 3
BITMAP
80
ENDCHAR
STARTCHAR 0388
ENCODING 904
SWIDTH 810 0
DWIDTH 9 0
BBX 8 9 0 0
BITMAP
BE
A0
20
20
3E
20
20
20
3F
ENDCHAR
STARTCHAR 0389
ENCODING 905
SWIDTH 810 0
DWIDTH 9 0
BBX 8 9 0 0
BITMAP
A1
A1
21
21
3F
21
21
21
21
ENDCHAR
STARTCHAR 038A
ENCODING 906
SWIDTH 360 0
DWIDTH 4 0
BBX 3 9 0 0
BITMAP
A0
A0
20
20
20
20
20
20
20
ENDCHAR
STARTCHAR 038C
ENCODING 908
SWIDTH 810 0
DWIDTH 9 0
BBX 8 9 0 0
BITMAP
BC
E2
41
C1
81
C1
41
62
3C
ENDCHAR
STARTCHAR 038E
ENCODING 910
SWIDTH 900 0
DWIDTH 10 0
BBX 9 9 0 0
BITMAP
A180
B100
1200
0A00
0C00
0400
0400
0400
0400
ENDCHAR
STARTCHAR 038F
ENCODING 911
SWIDTH 720 0
DWIDTH 8 0
BBX 8 9 0 0
BITMAP
BC
E2
41
41
C1
41
42
22
F7
ENDCHAR
STARTCHAR 0390
ENCODING 912
SWIDTH 180 0
DWIDTH 2 0
BBX 3 10 0 0
BITMAP
40
40
A0
00
40
40
40
40
40
40
ENDCHAR
STARTCHAR 0391
ENCODING 913
SWIDTH 630 0
DWIDTH 7 0
BBX 7 9 0 0
BITMAP
18
18
28
2C
24
7C
44
42
82
ENDCHAR
STARTCHAR 0392
ENCODING 914
SWIDTH 630 0
DWIDTH 7 0
BBX 6 9 1 0
BITMAP
F8
88
84
88
F8
84
84
84
F8
ENDCHAR
STARTCHAR 0393
ENCODING 915
SWIDTH 540 0
DWIDTH 6 0
BBX 5 9 1 0
BITMAP
F8
80
80
80
80
80
80
80
80
ENDCHAR
STARTCHAR 0394
ENCODING 916
SWIDTH 630 0
DWIDTH 7 0
BBX 7 9 0 0
BITMAP
10
18
28
2C
64
44
46
C2
FE
ENDCHAR
STARTCHAR 0395
ENCODING 917
SWIDTH 630 0
DWIDTH 7 0
BBX 6 9 1 0
BITMAP
FC
80
80
80
F8
80
80
80
FC
ENDCHAR
STARTCHAR 0396
ENCODING 918
SWIDTH 630 0
DWIDTH 7 0
BBX 6 9 0 0
BITMAP
7C
04
08
18
10
20
60
40
FC
ENDCHAR
STARTCHAR 0397
ENCODING 919
SWIDTH 720 0
DWIDTH 8 0
BBX 6 9 1 0
BITMAP
84
84
84
84
FC
84
84
84
84
ENDCHAR
STARTCHAR 0398
ENCODING 920
SWIDTH 810 0
DWIDTH 9 0
BBX 8 9 0 0
BITMAP
3C
62
41
C1
9D
C1
41
62
3C
ENDCHAR
STARTCHAR 0399
ENCODING 921
SWIDTH 270 0
DWIDTH 3 0
BBX 1 9 1 0
BITMAP
80
80
80
80
80
80
80
80
80
ENDCHAR
STARTCHAR 039A
ENCODING 922
SWIDTH 630 0
DWIDTH 7 0
BBX 6 9 1 0
BITMAP
8C
88
90
A0
E0
90
88
88
84
ENDCHAR
STARTCHAR 039B
ENCODING 923
SWIDTH 630 0
DWIDTH 7 0
BBX 7 9 0 0
BITMAP
18
18
28
28
24
44
44
42
82
ENDCHAR
STARTCHAR 039C
ENCODING 924
SWIDTH 810 0
DWIDTH 9 0
BBX 7 9 1 0
BITMAP
82
C2
C6
C6
A6
AA
AA
9A
92
ENDCHAR
STARTCHAR 039D
ENCODING 925
SWIDTH 720 0
DWIDTH 8 0
BBX 6 9 1 0
BITMAP
84
C4
C4
A4
B4
94
8C
8C
84
ENDCHAR
STARTCHAR 039E
ENCODING 926
SWIDTH 630 0
DWIDTH 7 0
BBX 6 9 1 0
BITMAP
F8
00
00
00
F8
00
00
00
FC
ENDCHAR
STARTCHAR 039F
ENCODING 927
SWIDTH 810 0
DWIDTH 9 0
BBX 8 9 0 0
BITMAP
3C
62
41
C1
81
C1
41
62
3C
ENDCHAR
STARTCHAR 03A0
ENCODING 928
SWIDTH 720 0
DWIDTH 8 0
BBX 6 9 1 0
BITMAP
FC
84
84
84
84
84
84
84
84
ENDCHAR
STARTCHAR 03A1
ENCODING 929
SWIDTH 630 0
DWIDTH 7 0
BBX 6 9 1 0
BITMAP
F8
8C
84
8C
F8
80
80
80
80
ENDCHAR
STARTCHAR 03A3
ENCODING 931
SWIDTH 630 0
DWIDTH 7 0
BBX 6 9 0 0
BITMAP
FC
40
20
10
08
10
20
40
FC
ENDCHAR
STARTCHAR 03A4
ENCODING 932
SWIDTH 630 0
DWIDTH 7 0
BBX 7 9 0 0
BITMAP
FE
10
10
10
10
10
10
10
10
ENDCHAR
STARTCHAR 03A5
ENCODING 933
SWIDTH 630 0
DWIDTH 7 0
BBX 7 9 0 0
BITMAP
C2
44
24
28
18
10
10
10
10
ENDCHAR
STARTCHAR 03A6
ENCODING 934
SWIDTH 810 0
DWIDTH 9 0
BBX 7 9 1 0
BITMAP
10
78
D4
92
92
92
D6
78
10
ENDCHAR
STARTCHAR 03A7
ENCODING 935
SWIDTH 630 0
DWIDTH 7 0
BBX 6 9 1 0
BITMAP
84
C8
58
30
20
70
58
88
84
ENDCHAR
STARTCHAR 03A8
ENCODING 936
SWIDTH 810 0
DWIDTH 9 0
BBX 8 9 1 0
BITMAP
93
93
93
93
92
92
7C
10
10
ENDCHAR
STARTCHAR 03A9
ENCODING 937
SWIDTH 720 0
DWIDTH 8 0
BBX 8 9 0 0
BITMAP
3C
62
43
41
C1
41
42
22
F7
ENDCHAR
STARTCHAR 03AA
ENCODING 938
SWIDTH 270 0
DWIDTH 3 0
BBX 3 11 0 0
BITMAP
A0
00
40
40
40
40
40
40
40
40
40
ENDCHAR
STARTCHAR 03AB
ENCODING 939
SWIDTH 630 0
DWIDTH 7 0
BBX 7 11 0 0
BITMAP
28
00
C2
44
24
28
18
10
10
10
10
ENDCHAR
STARTCHAR 03AC
ENCODING 940
SWIDTH 540 0
DWIDTH 6 0
BBX 6 9 0 0
BITMAP
20
20
00
74
8C
8C
8C
8C
74
ENDCHAR
STARTCHAR 03AD
ENCODING 941
SWIDTH 450 0
DWIDTH 5 0
BBX 5 9 0 0
BITMAP
20
20
20
70
88
60
C0
88
70
ENDCHAR
STARTCHAR 03AE
ENCODING 942
SWIDTH 540 0
DWIDTH 6 0
BBX 4 11 1 -2
BITMAP
20
20
00
F0
90
90
90
90
90
10
10
ENDCHAR
STARTCHAR 03AF
ENCODING 943
SWIDTH 180 0
DWIDTH 2 0
BBX 1 9 1 0
BITMAP
80
80
00
80
80
80
80
80
80
ENDCHAR
STARTCHAR 03B0
ENCODING 944
SWIDTH 540 0
DWIDTH 6 0
BBX 4 9 1 1
BITMAP
40
70
00
90
90
90
90
90
F0
ENDCHAR
STARTCHAR 03B1
ENCODING 945
SWIDTH 540 0
DWIDTH 6 0
BBX 6 6 0 0
BITMAP
74
4C
8C
8C
4C
74
ENDCHAR
STARTCHAR 03B2
ENCODING 946
SWIDTH 540 0
DWIDTH 6 0
BBX 5 11 1 -2
BITMAP
70
90
90
B0
90
88
88
88
F0
80
80
ENDCHAR
STARTCHAR 03B3
ENCODING 947
SWIDTH 540 0
DWIDTH 6 0
BBX 5 8 0 -2
BITMAP
88
48
50
50
30
20
20
20
ENDCHAR
STARTCHAR 03B4
ENCODING 948
SWIDTH 540 0
DWIDTH 6 0
BBX 6 9 0 0
BITMAP
78
20
30
48
44
84
84
48
38
ENDCHAR
STARTCHAR 03B5
ENCODING 949
SWIDTH 450 0
DWIDTH 5 0
BBX 5 6 0 0
BITMAP
70
88
60
C0
88
70
ENDCHAR
STARTCHAR 03B6
ENCODING 950
SWIDTH 450 0
DWIDTH 5 0
BBX 5 10 0 -2
BITMAP
78
10
20
40
40
80
40
70
08
08
ENDCHAR
STARTCHAR 03B7
ENCODING 951
SWIDTH 540 0
DWIDTH 6 0
BBX 4 8 1 -2
BITMAP
F0
90
90
90
90
90
10
10
ENDCHAR
STARTCHAR 03B8
ENCODING 952
SWIDTH 540 0
DWIDTH 6 0
BBX 5 9 1 0
BITMAP
60
90
90
88
F8
88
88
90
70
ENDCHAR
STARTCHAR 03B9
ENCODING 953
SWIDTH 180 0
DWIDTH 2 0
BBX 1 6 1 0
BITMAP
80
80
80
80
80
80
ENDCHAR
STARTCHAR 03BA
ENCODING 954
SWIDTH 540 0
DWIDTH 6 0
BBX 4 6 1 0
BITMAP
90
A0
C0
A0
90
90
ENDCHAR
STARTCHAR 03BB
ENCODING 955
SWIDTH 540 0
DWIDTH 6 0
BBX 5 9 0 0
BITMAP
20
20
20
30
30
50
50
48
88
ENDCHAR
STARTCHAR 03BC
ENCODING 956
SWIDTH 540 0
DWIDTH 6 0
BBX 5 8 1 -2
BITMAP
88
88
88
88
98
E8
80
80
ENDCHAR
STARTCHAR 03BD
ENCODING 957
SWIDTH 540 0
DWIDTH 6 0
BBX 5 6 0 0
BITMAP
88
48
50
50
30
20
ENDCHAR
STARTCHAR 03BE
ENCODING 958
SWIDTH 450 0
DWIDTH 5 0
BBX 5 11 0 -2
BITMAP
78
40
40
40
30
40
80
40
38
08
08
ENDCHAR
STARTCHAR 03BF
ENCODING 959
SWIDTH 540 0
DWIDTH 6 0
BBX 6 6 0 0
BITMAP
78
48
84
84
48
78
ENDCHAR
STARTCHAR 03C0
ENCODING 960
SWIDTH 720 0
DWIDTH 8 0
BBX 6 6 1 0
BITMAP
FC
88
88
88
88
88
ENDCHAR
STARTCHAR 03C1
ENCODING 961
SWIDTH 540 0
DWIDTH 6 0
BBX 5 8 1 -2
BITMAP
70
98
88
88
98
F0
80
80
ENDCHAR
STARTCHAR 03C2
ENCODING 962
SWIDTH 450 0
DWIDTH 5 0
BBX 5 8 0 -2
BITMAP
78
48
80
80
40
30
08
08
ENDCHAR
STARTCHAR 03C3
ENCODING 963
SWIDTH 630 0
DWIDTH 7 0
BBX 5 6 1 0
BITMAP
78
88
88
88
88
70
ENDCHAR
STARTCHAR 03C4
ENCODING 964
SWIDTH 360 0
DWIDTH 4 0
BBX 5 6 0 0
BITMAP
F8
20
20
20
20
20
ENDCHAR
STARTCHAR 03C5
ENCODING 965
SWIDTH 540 0
DWIDTH 6 0
BBX 4 6 1 0
BITMAP
90
90
90
90
90
F0
ENDCHAR
STARTCHAR 03C6
ENCODING 966
SWIDTH 630 0
DWIDTH 7 0
BBX 7 8 0 -2
BITMAP
18
54
92
92
54
7C
10
10
ENDCHAR
STARTCHAR 03C7
ENCODING 967
SWIDTH 540 0
DWIDTH 6 0
BBX 4 8 1 -2
BITMAP
90
90
60
60
60
60
90
90
ENDCHAR
STARTCHAR 03C8
ENCODING 968
SWIDTH 720 0
DWIDTH 8 0
BBX 6 8 1 -2
BITMAP
94
94
94
94
94
78
10
10
ENDCHAR
STARTCHAR 03C9
ENCODING 969
SWIDTH 810 0
DWIDTH 9 0
BBX 7 6 1 0
BITMAP
44
94
92
92
94
6C
ENDCHAR
STARTCHAR 03CA
ENCODING 970
SWIDTH 180 0
DWIDTH 2 0
BBX 3 8 0 0
BITMAP
E0
00
40
40
40
40
40
40
ENDCHAR
STARTCHAR 03CB
ENCODING 971
SWIDTH 540 0
DWIDTH 6 0
BBX 4 8 1 0
BITMAP
70
00
90
90
90
90
90
F0
ENDCHAR
STARTCHAR 03CC
ENCODING 972
SWIDTH 540 0
DWIDTH 6 0
BBX 6 9 0 0
BITMAP
10
20
00
78
48
84
84
48
78
ENDCHAR
STARTCHAR 03CD
ENCODING 973
SWIDTH 540 0
DWIDTH 6 0
BBX 4 8 1 1
BITMAP
40
00
90
90
90
90
90
F0
ENDCHAR
STARTCHAR 03CE
ENCODING 974
SWIDTH 810 0
DWIDTH 9 0
BBX 7 9 1 0
BITMAP
10
10
00
44
94
92
92
94
6C
ENDCHAR
STARTCHAR 03D1
ENCODING 977
SWIDTH 540 0
DWIDTH 6 0
BBX 6 9 0 0
BITMAP
30
48
48
48
3C
88
88
48
70
ENDCHAR
STARTCHAR 03D5
ENCODING 981
SWIDTH 540 0
DWIDTH 6 0
BBX 6 9 0 -2
BITMAP
10
78
D4
94
94
94
78
10
10
ENDCHAR
STARTCHAR 03D6
ENCODING 982
SWIDTH 810 0
DWIDTH 9 0
BBX 7 6 1 0
BITMAP
F8
84
92
92
94
6C
ENDCHAR
STARTCHAR 0400
ENCODING 1024
SWIDTH 630 0
DWIDTH 7 0
BBX 6 11 1 0
BITMAP
20
00
FC
80
80
80
F8
80
80
80
FC
ENDCHAR
STARTCHAR 0401
ENCODING 1025
SWIDTH 630 0
DWIDTH 7 0
BBX 6 11 1 0
BITMAP
50
00
FC
80
80
80
F8
80
80
80
FC
ENDCHAR
STARTCHAR 0402
ENCODING 1026
SWIDTH 900 0
DWIDTH 10 0
BBX 9 9 0 0
BITMAP
FC00
1000
1000
1F00
1180
1080
1080
1080
1700
ENDCHAR
STARTCHAR 0403
ENCODING 1027
SWIDTH 540 0
DWIDTH 6 0
BBX 5 11 1 0
BITMAP
20
00
F8
80
80
80
80
80
80
80
80
ENDCHAR
STARTCHAR 0404
ENCODING 1028
SWIDTH 720 0
DWIDTH 8 0
BBX 8 9 0 0
BITMAP
3C
42
C1
80
F8
80
C1
42
3C
ENDCHAR
STARTCHAR 0405
ENCODING 1029
SWIDTH 630 0
DWIDTH 7 0
BBX 6 9 1 0
BITMAP
78
88
84
C0
78
0C
84
84
78
ENDCHAR
STARTCHAR 0406
ENCODING 1030
SWIDTH 270 0
DWIDTH 3 0
BBX 1 9 1 0
BITMAP
80
80
80
80
80
80
80
80
80
ENDCHAR
STARTCHAR 0407
ENCODING 1031
SWIDTH 270 0
DWIDTH 3 0
BBX 3 11 0 0
BITMAP
A0
00
40
40
40
40
40
40
40
40
40
ENDCHAR
STARTCHAR 0408
ENCODING 1032
SWIDTH 540 0
DWIDTH 6 0
BBX 5 9 0 0
BITMAP
08
08
08
08
08
08
88
98
70
ENDCHAR
STARTCHAR 0409
ENCODING 1033
SWIDTH 1080 0
DWIDTH 12 0
BBX 11 9 0 0
BITMAP
3E00
2200
2200
2200
23E0
2220
2220
4220
C3E0
ENDCHAR
STARTCHAR 040A
ENCODING 1034
SWIDTH 990 0
DWIDTH 11 0
BBX 10 9 1 0
BITMAP
8800
8800
8800
8800
FF80
8840
8840
8840
8F80
ENDCHAR
STARTCHAR 040B
ENCODING 1035
SWIDTH 810 0
DWIDTH 9 0
BBX 8 9 0 0
BITMAP
FC
10
10
1F
11
11
11
11
11
ENDCHAR
STARTCHAR 040C
ENCODING 1036
SWIDTH 540 0
DWIDTH 6 0
BBX 5 11 1 0
BITMAP
20
00
90
90
A0
A0
C0
A0
B0
90
88
ENDCHAR
STARTCHAR 040D
ENCODING 1037
SWIDTH 720 0
DWIDTH 8 0
BBX 6 11 1 0
BITMAP
20
00
84
84
8C
94
B4
A4
C4
84
84
ENDCHAR
STARTCHAR 040E
ENCODING 1038
SWIDTH 630 0
DWIDTH 7 0
BBX 7 11 0 0
BITMAP
38
00
C2
44
44
2C
28
38
10
10
30
ENDCHAR
STARTCHAR 040F
ENCODING 1039
SWIDTH 720 0
DWIDTH 8 0
BBX 6 11 1 -2
BITMAP
84
84
84
84
84
84
84
84
FC
30
30
ENDCHAR
STARTCHAR 0410
ENCODING 1040
SWIDTH 630 0
DWIDTH 7 0
BBX 7 9 0 0
BITMAP
18
18
28
28
24
7C
44
42
82
ENDCHAR
STARTCHAR 0411
ENCODING 1041
SWIDTH 630 0
DWIDTH 7 0
BBX 6 9 1 0
BITMAP
F8
80
80
80
F8
84
84
84
F8
ENDCHAR
STARTCHAR 0412
ENCODING 1042
SWIDTH 630 0
DWIDTH 7 0
BBX 6 9 1 0
BITMAP
F8
88
84
88
F8
84
84
84
F8
ENDCHAR
STARTCHAR 0413
ENCODING 1043
SWIDTH 540 0
DWIDTH 6 0
BBX 5 9 1 0
BITMAP
F8
80
80
80
80
80
80
80
80
ENDCHAR
STARTCHAR 0414
ENCODING 1044
SWIDTH 720 0
DWIDTH 8 0
BBX 7 11 0 -2
BITMAP
3E
22
22
22
22
22
22
42
FE
82
82
ENDCHAR
STARTCHAR 0415
ENCODING 1045
SWIDTH 630 0
DWIDTH 7 0
BBX 6 9 1 0
BITMAP
FC
80
80
80
F8
80
80
80
FC
ENDCHAR
STARTCHAR 0416
ENCODING 1046
SWIDTH 900 0
DWIDTH 10 0
BBX 10 9 0 0
BITMAP
44C0
4480
2580
2500
1F00
2500
6480
4480
8440
ENDCHAR
STARTCHAR 0417
ENCODING 1047
SWIDTH 630 0
DWIDTH 7 0
BBX 5 9 1 0
BITMAP
70
88
88
10
30
08
88
88
70
ENDCHAR
STARTCHAR 0418
ENCODING 1048
SWIDTH 720 0
DWIDTH 8 0
BBX 6 9 1 0
BITMAP
84
84
8C
94
B4
A4
C4
84
84
ENDCHAR
STARTCHAR 0419
ENCODING 1049
SWIDTH 720 0
DWIDTH 8 0
BBX 6 11 1 0
BITMAP
30
00
84
84
8C
94
B4
A4
C4
84
84
ENDCHAR
STARTCHAR 041A
ENCODING 1050
SWIDTH 540 0
DWIDTH 6 0
BBX 5 9 1 0
BITMAP
90
90
A0
A0
C0
A0
B0
90
88
ENDCHAR
STARTCHAR 041B
ENCODING 1051
SWIDTH 630 0
DWIDTH 7 0
BBX 7 9 0 0
BITMAP
7E
42
42
42
42
42
42
42
82
ENDCHAR
STARTCHAR 041C
ENCODING 1052
SWIDTH 810 0
DWIDTH 9 0
BBX 7 9 1 0
BITMAP
82
C2
C6
C6
A6
AA
AA
9A
92
ENDCHAR
STARTCHAR 041D
ENCODING 1053
SWIDTH 720 0
DWIDTH 8 0
BBX 6 9 1 0
BITMAP
84
84
84
84
FC
84
84
84
84
ENDCHAR
STARTCHAR 041E
ENCODING 1054
SWIDTH 810 0
DWIDTH 9 0
BBX 8 9 0 0
BITMAP
3C
62
41
C1
81
C1
41
62
3C
ENDCHAR
STARTCHAR 041F
ENCODING 1055
SWIDTH 720 0
DWIDTH 8 0
BBX 6 9 1 0
BITMAP
FC
84
84
84
84
84
84
84
84
ENDCHAR
STARTCHAR 0420
ENCODING 1056
SWIDTH 630 0
DWIDTH 7 0
BBX 6 9 1 0
BITMAP
F8
8C
84
84
F8
80
80
80
80
ENDCHAR
STARTCHAR 0421
ENCODING 1057
SWIDTH 720 0
DWIDTH 8 0
BBX 7 9 0 0
BITMAP
3C
62
42
40
C0
40
42
62
3C
ENDCHAR
STARTCHAR 0422
ENCODING 1058
SWIDTH 630 0
DWIDTH 7 0
BBX 7 9 0 0
BITMAP
FE
10
10
10
10
10
10
10
10
ENDCHAR
STARTCHAR 0423
ENCODING 1059
SWIDTH 630 0
DWIDTH 7 0
BBX 7 9 0 0
BITMAP
C2
44
44
2C
28
38
10
10
30
ENDCHAR
STARTCHAR 0424
ENCODING 1060
SWIDTH 720 0
DWIDTH 8 0
BBX 8 9 0 0
BITMAP
08
3C
4B
C9
89
C9
4B
3C
08
ENDCHAR
STARTCHAR 0425
ENCODING 1061
SWIDTH 630 0
DWIDTH 7 0
BBX 6 9 1 0
BITMAP
84
C8
50
30
20
70
58
88
84
ENDCHAR
STARTCHAR 0426
ENCODING 1062
SWIDTH 720 0
DWIDTH 8 0
BBX 7 11 1 -2
BITMAP
84
84
84
84
84
84
84
84
FE
02
02
ENDCHAR
STARTCHAR 0427
ENCODING 1063
SWIDTH 630 0
DWIDTH 7 0
BBX 6 9 1 0
BITMAP
84
84
84
84
84
FC
04
04
04
ENDCHAR
STARTCHAR 0428
ENCODING 1064
SWIDTH 900 0
DWIDTH 10 0
BBX 9 9 1 0
BITMAP
8880
8880
8880
8880
8880
8880
8880
8880
FF80
ENDCHAR
STARTCHAR 0429
ENCODING 1065
SWIDTH 900 0
DWIDTH 10 0
BBX 9 11 1 -2
BITMAP
8880
8880
8880
8880
8880
8880
8880
8880
FF80
0080
0080
ENDCHAR
STARTCHAR 042A
ENCODING 1066
SWIDTH 810 0
DWIDTH 9 0
BBX 8 9 0 0
BITMAP
F0
10
10
10
1F
11
11
11
1F
ENDCHAR
STARTCHAR 042B
ENCODING 1067
SWIDTH 900 0
DWIDTH 10 0
BBX 8 9 1 0
BITMAP
81
81
81
81
F9
85
85
85
F9
ENDCHAR
STARTCHAR 042C
ENCODING 1068
SWIDTH 630 0
DWIDTH 7 0
BBX 6 9 1 0
BITMAP
80
80
80
80
F8
84
84
84
F8
ENDCHAR
STARTCHAR 042D
ENCODING 1069
SWIDTH 720 0
DWIDTH 8 0
BBX 8 9 0 0
BITMAP
3C
42
82
01
1F
01
83
42
3C
ENDCHAR
STARTCHAR 042E
ENCODING 1070
SWIDTH 990 0
DWIDTH 11 0
BBX 10 9 1 0
BITMAP
8F00
9880
9080
9040
F040
9040
9080
9880
8F00
ENDCHAR
STARTCHAR 042F
ENCODING 1071
SWIDTH 720 0
DWIDTH 8 0
BBX 6 9 1 0
BITMAP
7C
84
84
84
7C
84
84
84
84
ENDCHAR
STARTCHAR 0430
ENCODING 1072
SWIDTH 540 0
DWIDTH 6 0
BBX 6 6 0 0
BITMAP
78
48
18
68
88
7C
ENDCHAR
STARTCHAR 0431
ENCODING 1073
SWIDTH 540 0
DWIDTH 6 0
BBX 5 9 1 0
BITMAP
10
30
C0
F0
98
88
88
98
70
ENDCHAR
STARTCHAR 0432
ENCODING 1074
SWIDTH 540 0
DWIDTH 6 0
BBX 5 6 1 0
BITMAP
F0
90
F0
98
88
F0
ENDCHAR
STARTCHAR 0433
ENCODING 1075
SWIDTH 360 0
DWIDTH 4 0
BBX 3 6 1 0
BITMAP
E0
80
80
80
80
80
ENDCHAR
STARTCHAR 0434
ENCODING 1076
SWIDTH 540 0
DWIDTH 6 0
BBX 6 7 0 -1
BITMAP
3C
24
24
44
44
FC
84
ENDCHAR
STARTCHAR 0435
ENCODING 1077
SWIDTH 540 0
DWIDTH 6 0
BBX 6 6 0 0
BITMAP
78
4C
FC
80
48
38
ENDCHAR
STARTCHAR 0436
ENCODING 1078
SWIDTH 630 0
DWIDTH 7 0
BBX 7 6 0 0
BITMAP
52
54
3C
54
52
92
ENDCHAR
STARTCHAR 0437
ENCODING 1079
SWIDTH 450 0
DWIDTH 5 0
BBX 5 6 0 0
BITMAP
70
50
30
18
88
70
ENDCHAR
STARTCHAR 0438
ENCODING 1080
SWIDTH 540 0
DWIDTH 6 0
BBX 4 6 1 0
BITMAP
90
90
B0
D0
D0
90
ENDCHAR
STARTCHAR 0439
ENCODING 1081
SWIDTH 540 0
DWIDTH 6 0
BBX 4 9 1 0
BITMAP
90
60
00
90
90
B0
D0
D0
90
ENDCHAR
STARTCHAR 043A
ENCODING 1082
SWIDTH 450 0
DWIDTH 5 0
BBX 5 6 0 0
BITMAP
90
90
E0
90
90
88
ENDCHAR
STARTCHAR 043B
ENCODING 1083
SWIDTH 540 0
DWIDTH 6 0
BBX 6 6 0 0
BITMAP
7C
44
44
44
44
C4
ENDCHAR
STARTCHAR 043C
ENCODING 1084
SWIDTH 720 0
DWIDTH 8 0
BBX 7 6 0 0
BITMAP
C2
C6
A6
AA
9A
92
ENDCHAR
STARTCHAR 043D
ENCODING 1085
SWIDTH 540 0
DWIDTH 6 0
BBX 4 6 1 0
BITMAP
90
90
F0
90
90
90
ENDCHAR
STARTCHAR 043E
ENCODING 1086
SWIDTH 540 0
DWIDTH 6 0
BBX 6 6 0 0
BITMAP
78
48
84
84
48
78
ENDCHAR
STARTCHAR 043F
ENCODING 1087
SWIDTH 540 0
DWIDTH 6 0
BBX 4 6 1 0
BITMAP
F0
90
90
90
90
90
ENDCHAR
STARTCHAR 0440
ENCODING 1088
SWIDTH 540 0
DWIDTH 6 0
BBX 5 8 1 -2
BITMAP
F0
98
88
88
98
F0
80
80
ENDCHAR
STARTCHAR 0441
ENCODING 1089
SWIDTH 540 0
DWIDTH 6 0
BBX 5 6 0 0
BITMAP
70
48
80
80
48
70
ENDCHAR
STARTCHAR 0442
ENCODING 1090
SWIDTH 450 0
DWIDTH 5 0
BBX 5 6 0 0
BITMAP
F8
20
20
20
20
20
ENDCHAR
STARTCHAR 0443
ENCODING 1091
SWIDTH 540 0
DWIDTH 6 0
BBX 5 8 0 -2
BITMAP
88
48
50
50
30
20
20
40
ENDCHAR
STARTCHAR 0444
ENCODING 1092
SWIDTH 810 0
DWIDTH 9 0
BBX 7 9 1 -2
BITMAP
10
7C
92
92
92
92
7C
10
10
ENDCHAR
STARTCHAR 0445
ENCODING 1093
SWIDTH 540 0
DWIDTH 6 0
BBX 4 6 1 0
BITMAP
90
A0
60
60
A0
90
ENDCHAR
STARTCHAR 0446
ENCODING 1094
SWIDTH 540 0
DWIDTH 6 0
BBX 5 8 1 -2
BITMAP
90
90
90
90
90
F8
08
08
ENDCHAR
STARTCHAR 0447
ENCODING 1095
SWIDTH 540 0
DWIDTH 6 0
BBX 4 6 1 0
BITMAP
90
90
90
F0
10
10
ENDCHAR
STARTCHAR 0448
ENCODING 1096
SWIDTH 810 0
DWIDTH 9 0
BBX 7 6 1 0
BITMAP
92
92
92
92
92
FE
ENDCHAR
STARTCHAR 0449
ENCODING 1097
SWIDTH 810 0
DWIDTH 9 0
BBX 8 8 1 -2
BITMAP
92
92
92
92
92
FF
01
01
ENDCHAR
STARTCHAR 044A
ENCODING 1098
SWIDTH 630 0
DWIDTH 7 0
BBX 7 6 0 0
BITMAP
E0
20
3C
22
22
3C
ENDCHAR
STARTCHAR 044B
ENCODING 1099
SWIDTH 720 0
DWIDTH 8 0
BBX 6 6 1 0
BITMAP
84
84
F4
94
8C
F4
ENDCHAR
STARTCHAR 044C
ENCODING 1100
SWIDTH 540 0
DWIDTH 6 0
BBX 4 6 1 0
BITMAP
80
80
F0
90
90
F0
ENDCHAR
STARTCHAR 044D
ENCODING 1101
SWIDTH 540 0
DWIDTH 6 0
BBX 5 6 0 0
BITMAP
70
88
38
08
C8
70
ENDCHAR
STARTCHAR 044E
ENCODING 1102
SWIDTH 720 0
DWIDTH 8 0
BBX 7 6 1 0
BITMAP
9C
A2
E2
A2
A2
9C
ENDCHAR
STARTCHAR 044F
ENCODING 1103
SWIDTH 540 0
DWIDTH 6 0
BBX 4 6 1 0
BITMAP
F0
90
90
F0
90
90
ENDCHAR
STARTCHAR 0450
ENCODING 1104
SWIDTH 540 0
DWIDTH 6 0
BBX 6 9 0 0
BITMAP
20
10
00
78
4C
FC
80
48
78
ENDCHAR
STARTCHAR 0451
ENCODING 1105
SWIDTH 540 0
DWIDTH 6 0
BBX 6 8 0 0
BITMAP
38
00
38
4C
FC
80
48
38
ENDCHAR
STARTCHAR 0452
ENCODING 1106
SWIDTH 540 0
DWIDTH 6 0
BBX 5 11 0 -2
BITMAP
40
E0
40
78
48
48
48
48
48
08
38
ENDCHAR
STARTCHAR 0453
ENCODING 1107
SWIDTH 360 0
DWIDTH 4 0
BBX 3 9 1 0
BITMAP
40
40
00
E0
80
80
80
80
80
ENDCHAR
STARTCHAR 0454
ENCODING 1108
SWIDTH 540 0
DWIDTH 6 0
BBX 5 6 0 0
BITMAP
78
88
E0
88
48
70
ENDCHAR
STARTCHAR 0455
ENCODING 1109
SWIDTH 540 0
DWIDTH 6 0
BBX 5 6 0 0
BITMAP
70
48
60
18
88
70
ENDCHAR
STARTCHAR 0456
ENCODING 1110
SWIDTH 180 0
DWIDTH 2 0
BBX 1 9 1 0
BITMAP
80
00
00
80
80
80
80
80
80
ENDCHAR
STARTCHAR 0457
ENCODING 1111
SWIDTH 270 0
DWIDTH 3 0
BBX 3 8 0 0
BITMAP
A0
00
40
40
40
40
40
40
ENDCHAR
STARTCHAR 0458
ENCODING 1112
SWIDTH 180 0
DWIDTH 2 0
BBX 2 11 0 -2
BITMAP
40
00
00
40
40
40
40
40
40
40
C0
ENDCHAR
STARTCHAR 0459
ENCODING 1113
SWIDTH 900 0
DWIDTH 10 0
BBX 9 6 0 0
BITMAP
7C00
4400
4780
4480
4480
8780
ENDCHAR
STARTCHAR 045A
ENCODING 1114
SWIDTH 810 0
DWIDTH 9 0
BBX 8 6 1 0
BITMAP
90
90
FE
91
91
9E
ENDCHAR
STARTCHAR 045B
ENCODING 1115
SWIDTH 540 0
DWIDTH 6 0
BBX 5 9 0 0
BITMAP
40
E0
40
78
48
48
48
48
48
ENDCHAR
STARTCHAR 045C
ENCODING 1116
SWIDTH 450 0
DWIDTH 5 0
BBX 5 9 0 0
BITMAP
30
20
00
90
90
E0
90
90
88
ENDCHAR
STARTCHAR 045D
ENCODING 1117
SWIDTH 540 0
DWIDTH 6 0
BBX 4 9 1 0
BITMAP
40
40
00
90
90
B0
D0
D0
90
ENDCHAR
STARTCHAR 045E
ENCODING 1118
SWIDTH 540 0
DWIDTH 6 0
BBX 5 11 0 -2
BITMAP
50
30
00
88
48
50
50
30
20
20
40
ENDCHAR
STARTCHAR 045F
ENCODING 1119
SWIDTH 540 0
DWIDTH 6 0
BBX 4 8 1 -2
BITMAP
90
90
90
90
90
F0
20
20
ENDCHAR
STARTCHAR 0462
ENCODING 1122
SWIDTH 810 0
DWIDTH 9 0
BBX 8 9 0 0
BITMAP
20
F8
20
20
3E
21
21
21
3E
ENDCHAR
STARTCHAR 0463
ENCODING 1123
SWIDTH 630 0
DWIDTH 7 0
BBX 5 8 1 0
BITMAP
80
80
C0
80
F0
88
88
F8
ENDCHAR
STARTCHAR 0472
ENCODING 1138
SWIDTH 810 0
DWIDTH 9 0
BBX 8 9 0 0
BITMAP
3C
62
41
41
F1
8F
41
62
3C
ENDCHAR
STARTCHAR 0473
ENCODING 1139
SWIDTH 540 0
DWIDTH 6 0
BBX 6 6 0 0
BITMAP
78
48
E4
9C
48
78
ENDCHAR
STARTCHAR 0474
ENCODING 1140
SWIDTH 810 0
DWIDTH 9 0
BBX 7 9 1 0
BITMAP
86
C4
44
4C
68
28
28
30
10
ENDCHAR
STARTCHAR 0475
ENCODING 1141
SWIDTH 630 0
DWIDTH 7 0
BBX 5 6 1 0
BITMAP
88
90
50
50
60
20
ENDCHAR
STARTCHAR 0490
ENCODING 1168
SWIDTH 450 0
DWIDTH 5 0
BBX 6 11 1 0
BITMAP
04
08
F0
80
80
80
80
80
80
80
80
ENDCHAR
STARTCHAR 0491
ENCODING 1169
SWIDTH 450 0
DWIDTH 5 0
BBX 5 8 1 0
BITMAP
08
10
E0
80
80
80
80
80
ENDCHAR
STARTCHAR 0492
ENCODING 1170
SWIDTH 540 0
DWIDTH 6 0
BBX 6 9 0 0
BITMAP
7C
40
40
40
F8
40
40
40
40
ENDCHAR
STARTCHAR 0493
ENCODING 1171
SWIDTH 360 0
DWIDTH 4 0
BBX 4 6 0 0
BITMAP
70
40
E0
40
40
40
ENDCHAR
STARTCHAR 0496
ENCODING 1174
SWIDTH 990 0
DWIDTH 11 0
BBX 11 11 0 -2
BITMAP
4440
44C0
2480
2580
1F00
2480
2480
4440
8460
0020
0020
ENDCHAR
STARTCHAR 0497
ENCODING 1175
SWIDTH 810 0
DWIDTH 9 0
BBX 9 8 0 -2
BITMAP
4900
4A00
3E00
4A00
4900
8980
0080
0080
ENDCHAR
STARTCHAR 0498
ENCODING 1176
SWIDTH 630 0
DWIDTH 7 0
BBX 5 11 1 -2
BITMAP
70
88
88
18
30
08
88
88
F0
40
60
ENDCHAR
STARTCHAR 0499
ENCODING 1177
SWIDTH 450 0
DWIDTH 5 0
BBX 5 8 0 -2
BITMAP
70
50
10
30
88
70
20
70
ENDCHAR
STARTCHAR 049A
ENCODING 1178
SWIDTH 630 0
DWIDTH 7 0
BBX 6 11 1 -2
BITMAP
98
90
B0
A0
E0
A0
90
90
8C
04
04
ENDCHAR
STARTCHAR 049B
ENCODING 1179
SWIDTH 540 0
DWIDTH 6 0
BBX 5 8 1 -2
BITMAP
90
A0
E0
A0
90
98
08
08
ENDCHAR
STARTCHAR 049C
ENCODING 1180
SWIDTH 630 0
DWIDTH 7 0
BBX 6 9 1 0
BITMAP
88
98
D0
F0
E0
D0
D0
88
8C
ENDCHAR
STARTCHAR 049D
ENCODING 1181
SWIDTH 540 0
DWIDTH 6 0
BBX 4 6 1 0
BITMAP
90
E0
E0
E0
D0
90
ENDCHAR
STARTCHAR 04A0
ENCODING 1184
SWIDTH 540 0
DWIDTH 6 0
BBX 8 9 -2 0
BITMAP
F2
12
14
14
18
14
16
12
11
ENDCHAR
STARTCHAR 04A1
ENCODING 1185
SWIDTH 450 0
DWIDTH 5 0
BBX 7 6 -2 0
BITMAP
E4
24
38
24
24
22
ENDCHAR
STARTCHAR 04A2
ENCODING 1186
SWIDTH 720 0
DWIDTH 8 0
BBX 7 11 1 -2
BITMAP
84
84
84
84
FC
84
84
84
86
02
02
ENDCHAR
STARTCHAR 04A3
ENCODING 1187
SWIDTH 540 0
DWIDTH 6 0
BBX 5 8 1 -2
BITMAP
90
90
F0
90
90
98
08
08
ENDCHAR
STARTCHAR 04AA
ENCODING 1194
SWIDTH 720 0
DWIDTH 8 0
BBX 6 11 1 -2
BITMAP
78
C4
84
80
80
80
84
84
78
20
10
ENDCHAR
STARTCHAR 04AB
ENCODING 1195
SWIDTH 540 0
DWIDTH 6 0
BBX 5 8 0 -2
BITMAP
70
48
80
80
48
78
20
30
ENDCHAR
STARTCHAR 04AE
ENCODING 1198
SWIDTH 630 0
DWIDTH 7 0
BBX 7 9 0 0
BITMAP
C2
44
24
28
18
10
10
10
10
ENDCHAR
STARTCHAR 04AF
ENCODING 1199
SWIDTH 540 0
DWIDTH 6 0
BBX 5 8 0 -2
BITMAP
88
48
50
50
30
20
20
20
ENDCHAR
STARTCHAR 04B0
ENCODING 1200
SWIDTH 630 0
DWIDTH 7 0
BBX 7 9 0 0
BITMAP
C2
44
24
28
18
10
3C
10
10
ENDCHAR
STARTCHAR 04B1
ENCODING 1201
SWIDTH 540 0
DWIDTH 6 0
BBX 5 8 0 -2
BITMAP
88
48
50
50
30
20
78
20
ENDCHAR
STARTCHAR 04B2
ENCODING 1202
SWIDTH 720 0
DWIDTH 8 0
BBX 7 11 1 -2
BITMAP
84
C8
50
30
20
70
58
88
86
02
02
ENDCHAR
STARTCHAR 04B3
ENCODING 1203
SWIDTH 540 0
DWIDTH 6 0
BBX 5 8 1 -2
BITMAP
90
A0
60
60
A0
98
08
08
ENDCHAR
STARTCHAR 04B6
ENCODING 1206
SWIDTH 720 0
DWIDTH 8 0
BBX 6 11 1 -2
BITMAP
84
84
84
84
84
7C
04
04
04
04
04
ENDCHAR
STARTCHAR 04B7
ENCODING 1207
SWIDTH 540 0
DWIDTH 6 0
BBX 4 8 1 -2
BITMAP
90
90
90
F0
10
10
10
10
ENDCHAR
STARTCHAR 04B8
ENCODING 1208
SWIDTH 720 0
DWIDTH 8 0
BBX 6 9 1 0
BITMAP
84
84
A4
A4
A4
7C
24
24
04
ENDCHAR
STARTCHAR 04B9
ENCODING 1209
SWIDTH 540 0
DWIDTH 6 0
BBX 4 6 1 0
BITMAP
90
90
D0
F0
50
10
ENDCHAR
STARTCHAR 04BA
ENCODING 1210
SWIDTH 720 0
DWIDTH 8 0
BBX 6 9 1 0
BITMAP
80
80
80
F8
8C
84
84
84
84
ENDCHAR
STARTCHAR 04BB
ENCODING 1211
SWIDTH 540 0
DWIDTH 6 0
BBX 5 9 1 0
BITMAP
80
80
80
F0
88
88
88
88
88
ENDCHAR
STARTCHAR 04C0
ENCODING 1216
SWIDTH 270 0
DWIDTH 3 0
BBX 1 9 1 0
BITMAP
80
80
80
80
80
80
80
80
80
ENDCHAR
STARTCHAR 04CB
ENCODING 1227
SWIDTH 630 0
DWIDTH 7 0
BBX 6 11 1 -2
BITMAP
84
84
84
84
84
FC
04
04
0C
08
08
ENDCHAR
STARTCHAR 04CC
ENCODING 1228
SWIDTH 540 0
DWIDTH 6 0
BBX 4 8 1 -2
BITMAP
90
90
90
F0
10
30
20
20
ENDCHAR
STARTCHAR 04CF
ENCODING 1231
SWIDTH 270 0
DWIDTH 3 0
BBX 1 9 1 0
BITMAP
80
80
80
80
80
80
80
80
80
ENDCHAR
STARTCHAR 04D8
ENCODING 1240
SWIDTH 810 0
DWIDTH 9 0
BBX 8 9 0 0
BITMAP
3C
62
41
01
FF
C1
41
62
3C
ENDCHAR
STARTCHAR 04D9
ENCODING 1241
SWIDTH 540 0
DWIDTH 6 0
BBX 6 6 0 0
BITMAP
78
48
04
FC
48
78
ENDCHAR
STARTCHAR 04E2
ENCODING 1250
SWIDTH 720 0
DWIDTH 8 0
BBX 6 11 1 0
BITMAP
38
00
84
84
8C
94
B4
A4
C4
84
84
ENDCHAR
STARTCHAR 04E3
ENCODING 1251
SWIDTH 540 0
DWIDTH 6 0
BBX 4 8 1 0
BITMAP
E0
00
90
90
B0
D0
D0
90
ENDCHAR
STARTCHAR 04E8
ENCODING 1256
SWIDTH 810 0
DWIDTH 9 0
BBX 8 9 0 0
BITMAP
3C
62
41
C1
FF
C1
41
62
3C
ENDCHAR
STARTCHAR 04E9
ENCODING 1257
SWIDTH 540 0
DWIDTH 6 0
BBX 6 6 0 0
BITMAP
78
4C
FC
44
48
38
ENDCHAR
STARTCHAR 04EE
ENCODING 1262
SWIDTH 630 0
DWIDTH 7 0
BBX 7 11 0 0
BITMAP
38
00
C2
44
44
2C
28
38
10
10
30
ENDCHAR
STARTCHAR 04EF
ENCODING 1263
SWIDTH 540 0
DWIDTH 6 0
BBX 5 10 0 -2
BITMAP
70
00
88
48
50
50
30
20
20
40
ENDCHAR
STARTCHAR 1E80
ENCODING 7808
SWIDTH 900 0
DWIDTH 10 0
BBX 10 11 0 0
BITMAP
0C00
0000
8440
4C40
4C40
4AC0
4A80
3280
3280
3180
3100
ENDCHAR
STARTCHAR 1E81
ENCODING 7809
SWIDTH 720 0
DWIDTH 8 0
BBX 8 9 0 0
BITMAP
10
10
00
99
9A
5A
6A
66
24
ENDCHAR
STARTCHAR 1E82
ENCODING 7810
SWIDTH 900 0
DWIDTH 10 0
BBX 10 11 0 0
BITMAP
0200
0000
8440
4C40
4C40
4AC0
4A80
3280
3280
3180
3100
ENDCHAR
STARTCHAR 1E83
ENCODING 7811
SWIDTH 720 0
DWIDTH 8 0
BBX 8 9 0 0
BITMAP
08
10
00
99
9A
5A
6A
66
24
ENDCHAR
STARTCHAR 1E84
ENCODING 7812
SWIDTH 900 0
DWIDTH 10 0
BBX 10 11 0 0
BITMAP
0A00
0000
8440
4C40
4C40
4AC0
4A80
3280
3280
3180
3100
ENDCHAR
STARTCHAR 1E85
ENCODING 7813
SWIDTH 720 0
DWIDTH 8 0
BBX 8 8 0 0
BITMAP
38
00
99
9A
5A
6A
66
24
ENDCHAR
STARTCHAR 1EF2
ENCODING 7922
SWIDTH 630 0
DWIDTH 7 0
BBX 7 11 0 0
BITMAP
10
00
C2
44
24
28
18
10
10
10
10
ENDCHAR
STARTCHAR 1EF3
ENCODING 7923
SWIDTH 540 0
DWIDTH 6 0
BBX 5 11 0 -2
BITMAP
60
20
00
88
48
50
50
30
20
20
40
ENDCHAR
STARTCHAR 2002
ENCODING 8194
SWIDTH 540 0
DWIDTH 6 0
BBX 0 0 0 0
BITMAP
ENDCHAR
STARTCHAR 2013
ENCODING 8211
SWIDTH 540 0
DWIDTH 6 0
BBX 6 1 0 3
BITMAP
FC
ENDCHAR
STARTCHAR 2014
ENCODING 8212
SWIDTH 990 0
DWIDTH 11 0
BBX 11 1 0 3
BITMAP
FFE0
ENDCHAR
STARTCHAR 2015
ENCODING 8213
SWIDTH 990 0
DWIDTH 11 0
BBX 11 1 0 3
BITMAP
FFE0
ENDCHAR
STARTCHAR 2017
ENCODING 8215
SWIDTH 540 0
DWIDTH 6 0
BBX 6 3 0 -3
BITMAP
FC
00
FC
ENDCHAR
STARTCHAR 2018
ENCODING 8216
SWIDTH 180 0
DWIDTH 2 0
BBX 1 3 1 5
BITMAP
80
80
80
ENDCHAR
STARTCHAR 2019
ENCODING 8217
SWIDTH 180 0
DWIDTH 2 0
BBX 1 2 1 6
BITMAP
80
80
ENDCHAR
STARTCHAR 201A
ENCODING 8218
SWIDTH 180 0
DWIDTH 2 0
BBX 1 2 1 -1
BITMAP
80
80
ENDCHAR
STARTCHAR 201B
ENCODING 8219
SWIDTH 180 0
DWIDTH 2 0
BBX 1 3 1 6
BITMAP
80
80
80
ENDCHAR
STARTCHAR 201C
ENCODING 8220
SWIDTH 360 0
DWIDTH 4 0
BBX 2 3 1 5
BITMAP
80
C0
C0
ENDCHAR
STARTCHAR 201D
ENCODING 8221
SWIDTH 360 0
DWIDTH 4 0
BBX 2 3 1 5
BITMAP
C0
C0
40
ENDCHAR
STARTCHAR 201E
ENCODING 8222
SWIDTH 360 0
DWIDTH 4 0
BBX 2 1 1 -1
BITMAP
C0
ENDCHAR
STARTCHAR 2020
ENCODING 8224
SWIDTH 540 0
DWIDTH 6 0
BBX 6 10 0 -2
BITMAP
10
10
FC
10
10
10
10
10
10
10
ENDCHAR
STARTCHAR 2021
ENCODING 8225
SWIDTH 540 0
DWIDTH 6 0
BBX 6 10 0 -2
BITMAP
10
10
FC
10
10
10
10
FC
10
10
ENDCHAR
STARTCHAR 2022
ENCODING 8226
SWIDTH 360 0
DWIDTH 4 0
BBX 2 3 1 2
BITMAP
C0
C0
C0
ENDCHAR
STARTCHAR 2026
ENCODING 8230
SWIDTH 990 0
DWIDTH 11 0
BBX 9 1 1 0
BITMAP
8880
ENDCHAR
STARTCHAR 2030
ENCODING 8240
SWIDTH 990 0
DWIDTH 11 0
BBX 11 9 0 0
BITMAP
6400
A800
A800
5000
1000
2440
2AA0
3320
4EE0
ENDCHAR
STARTCHAR 2032
ENCODING 8242
SWIDTH 180 0
DWIDTH 2 0
BBX 2 2 0 5
BITMAP
40
80
ENDCHAR
STARTCHAR 2033
ENCODING 8243
SWIDTH 360 0
DWIDTH 4 0
BBX 2 2 1 5
BITMAP
C0
C0
ENDCHAR
STARTCHAR 2039
ENCODING 8249
SWIDTH 360 0
DWIDTH 4 0
BBX 2 4 1 1
BITMAP
40
80
80
40
ENDCHAR
STARTCHAR 203A
ENCODING 8250
SWIDTH 360 0
DWIDTH 4 0
BBX 2 2 1 2
BITMAP
C0
C0
ENDCHAR
STARTCHAR 203C
ENCODING 8252
SWIDTH 540 0
DWIDTH 6 0
BBX 4 9 1 0
BITMAP
90
90
90
90
90
90
90
00
90
ENDCHAR
STARTCHAR 203E
ENCODING 8254
SWIDTH 360 0
DWIDTH 4 0
BBX 6 1 -1 9
BITMAP
FC
ENDCHAR
STARTCHAR 2044
ENCODING 8260
SWIDTH 270 0
DWIDTH 3 0
BBX 5 8 -1 0
BITMAP
08
10
10
20
40
40
80
80
ENDCHAR
STARTCHAR 2070
ENCODING 8304
SWIDTH 360 0
DWIDTH 4 0
BBX 3 5 0 3
BITMAP
60
A0
A0
A0
60
ENDCHAR
STARTCHAR 2074
ENCODING 8308
SWIDTH 360 0
DWIDTH 4 0
BBX 4 5 0 3
BITMAP
20
60
A0
F0
20
ENDCHAR
STARTCHAR 2075
ENCODING 8309
SWIDTH 360 0
DWIDTH 4 0
BBX 4 5 0 3
BITMAP
60
C0
A0
10
E0
ENDCHAR
STARTCHAR 2076
ENCODING 8310
SWIDTH 360 0
DWIDTH 4 0
BBX 4 5 0 3
BITMAP
60
80
E0
90
60
ENDCHAR
STARTCHAR 2077
ENCODING 8311
SWIDTH 360 0
DWIDTH 4 0
BBX 4 5 0 3
BITMAP
F0
20
40
40
40
ENDCHAR
STARTCHAR 2078
ENCODING 8312
SWIDTH 360 0
DWIDTH 4 0
BBX 4 5 0 3
BITMAP
60
A0
60
90
E0
ENDCHAR
STARTCHAR 2079
ENCODING 8313
SWIDTH 360 0
DWIDTH 4 0
BBX 3 5 0 3
BITMAP
60
A0
E0
20
60
ENDCHAR
STARTCHAR 207F
ENCODING 8319
SWIDTH 360 0
DWIDTH 4 0
BBX 2 3 1 3
BITMAP
C0
C0
C0
ENDCHAR
STARTCHAR 20A3
ENCODING 8355
SWIDTH 540 0
DWIDTH 6 0
BBX 6 9 0 0
BITMAP
FC
80
80
94
F8
90
90
90
90
ENDCHAR
STARTCHAR 20A4
ENCODING 8356
SWIDTH 540 0
DWIDTH 6 0
BBX 6 9 0 0
BITMAP
38
4C
44
40
F0
F0
20
40
FC
ENDCHAR
STARTCHAR 20A7
ENCODING 8359
SWIDTH 1080 0
DWIDTH 12 0
BBX 10 9 1 0
BITMAP
E000
9000
9000
9000
E000
89C0
8900
88C0
85C0
ENDCHAR
STARTCHAR 20AC
ENCODING 8364
SWIDTH 540 0
DWIDTH 6 0
BBX 6 8 0 0
BITMAP
3C
64
40
F8
F8
40
60
3C
ENDCHAR
STARTCHAR 20AF
ENCODING 8367
SWIDTH 900 0
DWIDTH 10 0
BBX 8 9 1 -2
BITMAP
70
C8
4B
4D
4D
95
E6
08
08
ENDCHAR
STARTCHAR 20DD
ENCODING 8413
SWIDTH 990 0
DWIDTH 11 0
BBX 7 8 2 0
BITMAP
38
C6
82
82
82
82
82
7C
ENDCHAR
STARTCHAR 2105
ENCODING 8453
SWIDTH 900 0
DWIDTH 10 0
BBX 8 8 1 0
BITMAP
E4
84
88
F6
19
29
29
47
ENDCHAR
STARTCHAR 210F
ENCODING 8463
SWIDTH 540 0
DWIDTH 6 0
BBX 5 8 1 0
BITMAP
20
60
D8
68
D0
90
90
90
ENDCHAR
STARTCHAR 2111
ENCODING 8465
SWIDTH 720 0
DWIDTH 8 0
BBX 6 9 1 -1
BITMAP
60
90
8C
80
8C
10
88
48
30
ENDCHAR
STARTCHAR 2112
ENCODING 8466
SWIDTH 810 0
DWIDTH 9 0
BBX 9 8 0 0
BITMAP
2380
4480
4500
2600
1C00
0400
0900
FF00
ENDCHAR
STARTCHAR 2113
ENCODING 8467
SWIDTH 360 0
DWIDTH 4 0
BBX 4 9 0 0
BITMAP
30
50
60
60
40
80
80
80
C0
ENDCHAR
STARTCHAR 2116
ENCODING 8470
SWIDTH 1080 0
DWIDTH 12 0
BBX 10 9 1 0
BITMAP
8980
8A40
CA40
CC40
AA40
AA40
9980
9800
8BC0
ENDCHAR
STARTCHAR 2118
ENCODING 8472
SWIDTH 630 0
DWIDTH 7 0
BBX 5 6 1 -1
BITMAP
F8
C8
A8
D0
E0
C0
ENDCHAR
STARTCHAR 211C
ENCODING 8476
SWIDTH 810 0
DWIDTH 9 0
BBX 6 7 1 0
BITMAP
6C
B4
A4
F8
6C
24
E4
ENDCHAR
STARTCHAR 211E
ENCODING 8478
SWIDTH 720 0
DWIDTH 8 0
BBX 5 7 2 0
BITMAP
F0
88
88
F0
98
90
98
ENDCHAR
STARTCHAR 2120
ENCODING 8480
SWIDTH 630 0
DWIDTH 7 0
BBX 6 3 0 4
BITMAP
F4
7C
F8
ENDCHAR
STARTCHAR 2122
ENCODING 8482
SWIDTH 990 0
DWIDTH 11 0
BBX 9 5 1 4
BITMAP
FC80
4C80
4D80
4B80
4A00
ENDCHAR
STARTCHAR 2126
ENCODING 8486
SWIDTH 810 0
DWIDTH 9 0
BBX 8 9 0 0
BITMAP
3C
62
41
C1
81
41
41
22
F7
ENDCHAR
STARTCHAR 2128
ENCODING 8488
SWIDTH 630 0
DWIDTH 7 0
BBX 7 9 0 -1
BITMAP
3C
04
24
18
64
04
02
E4
18
ENDCHAR
STARTCHAR 212D
ENCODING 8493
SWIDTH 630 0
DWIDTH 7 0
BBX 6 9 1 -1
BITMAP
6C
B0
A0
90
88
88
B0
44
38
ENDCHAR
STARTCHAR 212E
ENCODING 8494
SWIDTH 630 0
DWIDTH 7 0
BBX 5 6 1 0
BITMAP
70
88
F8
80
88
70
ENDCHAR
STARTCHAR 212F
ENCODING 8495
SWIDTH 540 0
DWIDTH 6 0
BBX 4 5 1 0
BITMAP
70
90
E0
80
E0
ENDCHAR
STARTCHAR 2135
ENCODING 8501
SWIDTH 540 0
DWIDTH 6 0
BBX 5 7 0 0
BITMAP
80
58
50
B0
D0
48
E8
ENDCHAR
STARTCHAR 2136
ENCODING 8502
SWIDTH 450 0
DWIDTH 5 0
BBX 4 5 1 1
BITMAP
F0
10
10
10
F0
ENDCHAR
STARTCHAR 2137
ENCODING 8503
SWIDTH 360 0
DWIDTH 4 0
BBX 2 6 1 0
BITMAP
C0
C0
40
40
40
80
ENDCHAR
STARTCHAR 215B
ENCODING 8539
SWIDTH 810 0
DWIDTH 9 0
BBX 8 8 1 0
BITMAP
84
88
88
96
29
26
49
86
ENDCHAR
STARTCHAR 215C
ENCODING 8540
SWIDTH 810 0
DWIDTH 9 0
BBX 9 8 0 0
BITMAP
6200
9200
3400
9B00
6C80
1300
2480
2380
ENDCHAR
STARTCHAR 215D
ENCODING 8541
SWIDTH 810 0
DWIDTH 9 0
BBX 9 8 0 0
BITMAP
6200
8200
7400
9B00
6C80
1300
2480
2380
ENDCHAR
STARTCHAR 215E
ENCODING 8542
SWIDTH 810 0
DWIDTH 9 0
BBX 8 8 1 0
BITMAP
E8
48
90
96
29
46
49
86
ENDCHAR
STARTCHAR 2190
ENCODING 8592
SWIDTH 990 0
DWIDTH 11 0
BBX 9 3 1 1
BITMAP
4000
FF80
4000
ENDCHAR
STARTCHAR 2191
ENCODING 8593
SWIDTH 540 0
DWIDTH 6 0
BBX 3 9 1 -1
BITMAP
40
60
C0
40
40
40
40
40
40
ENDCHAR
STARTCHAR 2192
ENCODING 8594
SWIDTH 990 0
DWIDTH 11 0
BBX 9 3 1 1
BITMAP
0100
FF80
0100
ENDCHAR
STARTCHAR 2193
ENCODING 8595
SWIDTH 540 0
DWIDTH 6 0
BBX 3 9 1 -1
BITMAP
40
40
40
40
40
40
40
E0
40
ENDCHAR
STARTCHAR 2194
ENCODING 8596
SWIDTH 990 0
DWIDTH 11 0
BBX 9 4 1 1
BITMAP
2200
FF80
2100
0200
ENDCHAR
STARTCHAR 2195
ENCODING 8597
SWIDTH 540 0
DWIDTH 6 0
BBX 4 8 1 0
BITMAP
40
60
D0
40
40
40
E0
40
ENDCHAR
STARTCHAR 2196
ENCODING 8598
SWIDTH 720 0
DWIDTH 8 0
BBX 8 8 0 -1
BITMAP
C0
F0
A0
10
08
04
02
01
ENDCHAR
STARTCHAR 2197
ENCODING 8599
SWIDTH 720 0
DWIDTH 8 0
BBX 8 7 0 -1
BITMAP
07
02
06
0A
10
20
C0
ENDCHAR
STARTCHAR 2198
ENCODING 8600
SWIDTH 720 0
DWIDTH 8 0
BBX 8 7 0 -1
BITMAP
80
40
20
10
0A
06
07
ENDCHAR
STARTCHAR 2199
ENCODING 8601
SWIDTH 720 0
DWIDTH 8 0
BBX 7 7 0 0
BITMAP
06
08
10
60
C0
A0
C0
ENDCHAR
STARTCHAR 21A8
ENCODING 8616
SWIDTH 540 0
DWIDTH 6 0
BBX 4 10 1 -1
BITMAP
40
60
D0
40
40
40
E0
40
00
40
ENDCHAR
STARTCHAR 21B5
ENCODING 8629
SWIDTH 990 0
DWIDTH 11 0
BBX 8 4 2 2
BITMAP
01
61
FF
60
ENDCHAR
STARTCHAR 21C4
ENCODING 8644
SWIDTH 990 0
DWIDTH 11 0
BBX 9 6 1 1
BITMAP
0200
FF80
0100
4000
FF80
2000
ENDCHAR
STARTCHAR 21C6
ENCODING 8646
SWIDTH 990 0
DWIDTH 11 0
BBX 9 6 1 1
BITMAP
2000
FF80
4000
0100
FF80
0200
ENDCHAR
STARTCHAR 21D0
ENCODING 8656
SWIDTH 720 0
DWIDTH 8 0
BBX 7 4 0 2
BITMAP
40
BE
40
3E
ENDCHAR
STARTCHAR 21D1
ENCODING 8657
SWIDTH 720 0
DWIDTH 8 0
BBX 4 6 2 0
BITMAP
60
A0
B0
A0
A0
A0
ENDCHAR
STARTCHAR 21D2
ENCODING 8658
SWIDTH 720 0
DWIDTH 8 0
BBX 7 4 1 2
BITMAP
08
F6
04
F8
ENDCHAR
STARTCHAR 21D3
ENCODING 8659
SWIDTH 720 0
DWIDTH 8 0
BBX 4 6 2 1
BITMAP
A0
A0
A0
90
A0
40
ENDCHAR
STARTCHAR 21D4
ENCODING 8660
SWIDTH 720 0
DWIDTH 8 0
BBX 8 4 0 2
BITMAP
44
BB
42
3C
ENDCHAR
STARTCHAR 21D5
ENCODING 8661
SWIDTH 720 0
DWIDTH 8 0
BBX 5 7 2 0
BITMAP
60
90
A0
A0
A0
A8
70
ENDCHAR
STARTCHAR 2200
ENCODING 8704
SWIDTH 630 0
DWIDTH 7 0
BBX 6 6 0 0
BITMAP
C4
44
78
28
30
10
ENDCHAR
STARTCHAR 2202
ENCODING 8706
SWIDTH 450 0
DWIDTH 5 0
BBX 5 8 0 1
BITMAP
70
08
08
08
78
88
90
70
ENDCHAR
STARTCHAR 2203
ENCODING 8707
SWIDTH 450 0
DWIDTH 5 0
BBX 3 6 1 0
BITMAP
E0
20
E0
20
20
E0
ENDCHAR
STARTCHAR 2205
ENCODING 8709
SWIDTH 990 0
DWIDTH 11 0
BBX 9 8 1 0
BITMAP
1C80
2300
4300
4500
5900
6100
6100
9E00
ENDCHAR
STARTCHAR 2206
ENCODING 8710
SWIDTH 630 0
DWIDTH 7 0
BBX 7 7 0 0
BITMAP
10
30
28
48
44
44
FE
ENDCHAR
STARTCHAR 2207
ENCODING 8711
SWIDTH 720 0
DWIDTH 8 0
BBX 6 7 1 0
BITMAP
FC
84
48
48
28
30
30
ENDCHAR
STARTCHAR 2208
ENCODING 8712
SWIDTH 990 0
DWIDTH 11 0
BBX 6 6 3 0
BITMAP
7C
80
80
FC
80
FC
ENDCHAR
STARTCHAR 2209
ENCODING 8713
SWIDTH 990 0
DWIDTH 11 0
BBX 6 7 3 -1
BITMAP
08
7C
90
A0
FC
C0
FC
ENDCHAR
STARTCHAR 220B
ENCODING 8715
SWIDTH 990 0
DWIDTH 11 0
BBX 6 6 3 0
BITMAP
F0
08
08
FC
08
F8
ENDCHAR
STARTCHAR 220D
ENCODING 8717
SWIDTH 540 0
DWIDTH 6 0
BBX 5 5 1 0
BITMAP
F0
08
F8
10
F0
ENDCHAR
STARTCHAR 220F
ENCODING 8719
SWIDTH 990 0
DWIDTH 11 0
BBX 9 11 1 -3
BITMAP
FF80
6100
6100
6100
6100
6100
6100
6100
6100
6100
6300
ENDCHAR
STARTCHAR 2211
ENCODING 8721
SWIDTH 990 0
DWIDTH 11 0
BBX 5 9 3 -1
BITMAP
F8
88
80
40
20
40
40
88
F8
ENDCHAR
STARTCHAR 2212
ENCODING 8722
SWIDTH 540 0
DWIDTH 6 0
BBX 6 1 0 2
BITMAP
FC
ENDCHAR
STARTCHAR 2213
ENCODING 8723
SWIDTH 990 0
DWIDTH 11 0
BBX 5 7 3 0
BITMAP
F8
00
20
20
F8
20
20
ENDCHAR
STARTCHAR 2215
ENCODING 8725
SWIDTH 270 0
DWIDTH 3 0
BBX 5 8 -1 0
BITMAP
08
10
10
20
40
40
80
80
ENDCHAR
STARTCHAR 2217
ENCODING 8727
SWIDTH 990 0
DWIDTH 11 0
BBX 3 3 4 1
BITMAP
E0
40
E0
ENDCHAR
STARTCHAR 2219
ENCODING 8729
SWIDTH 270 0
DWIDTH 3 0
BBX 1 1 1 3
BITMAP
80
ENDCHAR
STARTCHAR 221A
ENCODING 8730
SWIDTH 450 0
DWIDTH 5 0
BBX 4 9 1 1
BITMAP
10
10
10
20
A0
A0
60
20
20
ENDCHAR
STARTCHAR 221D
ENCODING 8733
SWIDTH 990 0
DWIDTH 11 0
BBX 6 3 2 1
BITMAP
6C
90
6C
ENDCHAR
STARTCHAR 221E
ENCODING 8734
SWIDTH 720 0
DWIDTH 8 0
BBX 8 4 0 1
BITMAP
42
BD
99
66
ENDCHAR
STARTCHAR 221F
ENCODING 8735
SWIDTH 990 0
DWIDTH 11 0
BBX 9 9 1 1
BITMAP
8000
8000
8000
8000
8000
8000
8000
8000
FF80
ENDCHAR
STARTCHAR 2220
ENCODING 8736
SWIDTH 990 0
DWIDTH 11 0
BBX 5 4 3 1
BITMAP
10
20
40
F8
ENDCHAR
STARTCHAR 2223
ENCODING 8739
SWIDTH 720 0
DWIDTH 8 0
BBX 1 10 3 -3
BITMAP
80
80
80
80
80
80
80
80
80
80
ENDCHAR
STARTCHAR 2225
ENCODING 8741
SWIDTH 720 0
DWIDTH 8 0
BBX 2 11 3 -2
BITMAP
C0
C0
C0
C0
C0
C0
C0
C0
C0
C0
C0
ENDCHAR
STARTCHAR 2227
ENCODING 8743
SWIDTH 990 0
DWIDTH 11 0
BBX 5 6 3 0
BITMAP
20
20
50
50
88
88
ENDCHAR
STARTCHAR 2228
ENCODING 8744
SWIDTH 990 0
DWIDTH 11 0
BBX 5 6 3 0
BITMAP
88
88
50
50
50
20
ENDCHAR
STARTCHAR 2229
ENCODING 8745
SWIDTH 720 0
DWIDTH 8 0
BBX 6 7 1 0
BITMAP
30
48
84
84
84
84
84
ENDCHAR
STARTCHAR 222A
ENCODING 8746
SWIDTH 720 0
DWIDTH 8 0
BBX 6 7 1 0
BITMAP
84
84
84
84
84
88
78
ENDCHAR
STARTCHAR 222B
ENCODING 8747
SWIDTH 270 0
DWIDTH 3 0
BBX 3 12 0 -2
BITMAP
20
40
40
40
40
40
40
40
40
40
C0
C0
ENDCHAR
STARTCHAR 222E
ENCODING 8750
SWIDTH 990 0
DWIDTH 11 0
BBX 5 14 3 -3
BITMAP
30
40
20
20
20
F0
A8
A8
B0
60
20
20
20
C0
ENDCHAR
STARTCHAR 2234
ENCODING 8756
SWIDTH 990 0
DWIDTH 11 0
BBX 7 7 2 0
BITMAP
10
00
00
00
00
00
82
ENDCHAR
STARTCHAR 2235
ENCODING 8757
SWIDTH 990 0
DWIDTH 11 0
BBX 7 7 2 0
BITMAP
82
00
00
00
00
00
10
ENDCHAR
STARTCHAR 2237
ENCODING 8759
SWIDTH 990 0
DWIDTH 11 0
BBX 7 7 2 0
BITMAP
82
00
00
00
00
00
82
ENDCHAR
STARTCHAR 2245
ENCODING 8773
SWIDTH 990 0
DWIDTH 11 0
BBX 5 4 3 1
BITMAP
78
80
F8
F8
ENDCHAR
STARTCHAR 2248
ENCODING 8776
SWIDTH 540 0
DWIDTH 6 0
BBX 6 3 0 2
BITMAP
78
64
98
ENDCHAR
STARTCHAR 2260
ENCODING 8800
SWIDTH 540 0
DWIDTH 6 0
BBX 6 5 0 0
BITMAP
10
FC
20
FC
40
ENDCHAR
STARTCHAR 2261
ENCODING 8801
SWIDTH 540 0
DWIDTH 6 0
BBX 5 5 1 0
BITMAP
F8
00
F8
00
F8
ENDCHAR
STARTCHAR 2262
ENCODING 8802
SWIDTH 990 0
DWIDTH 11 0
BBX 5 6 3 1
BITMAP
F8
20
F8
40
F8
80
ENDCHAR
STARTCHAR 2264
ENCODING 8804
SWIDTH 540 0
DWIDTH 6 0
BBX 6 7 0 0
BITMAP
0C
30
C0
70
0C
00
FC
ENDCHAR
STARTCHAR 2265
ENCODING 8805
SWIDTH 540 0
DWIDTH 6 0
BBX 6 7 0 0
BITMAP
C0
30
0C
38
C0
00
FC
ENDCHAR
STARTCHAR 226A
ENCODING 8810
SWIDTH 990 0
DWIDTH 11 0
BBX 7 6 2 0
BITMAP
06
1A
EC
DC
3A
06
ENDCHAR
STARTCHAR 226B
ENCODING 8811
SWIDTH 990 0
DWIDTH 11 0
BBX 7 6 2 0
BITMAP
C0
B0
6E
76
B8
C0
ENDCHAR
STARTCHAR 2282
ENCODING 8834
SWIDTH 990 0
DWIDTH 11 0
BBX 6 6 3 0
BITMAP
7C
80
80
80
80
FC
ENDCHAR
STARTCHAR 2283
ENCODING 8835
SWIDTH 990 0
DWIDTH 11 0
BBX 6 6 3 0
BITMAP
F0
08
08
04
08
F8
ENDCHAR
STARTCHAR 2284
ENCODING 8836
SWIDTH 990 0
DWIDTH 11 0
BBX 6 6 3 -1
BITMAP
7C
90
90
A0
A0
FC
ENDCHAR
STARTCHAR 2285
ENCODING 8837
SWIDTH 990 0
DWIDTH 11 0
BBX 6 6 3 -1
BITMAP
F0
88
48
24
28
F8
ENDCHAR
STARTCHAR 2286
ENCODING 8838
SWIDTH 990 0
DWIDTH 11 0
BBX 6 7 3 0
BITMAP
7C
80
80
80
80
7C
FC
ENDCHAR
STARTCHAR 2287
ENCODING 8839
SWIDTH 990 0
DWIDTH 11 0
BBX 6 7 3 0
BITMAP
F0
08
08
08
08
F0
FC
ENDCHAR
STARTCHAR 2295
ENCODING 8853
SWIDTH 990 0
DWIDTH 11 0
BBX 8 8 2 0
BITMAP
7C
92
92
FF
92
92
92
7C
ENDCHAR
STARTCHAR 2296
ENCODING 8854
SWIDTH 990 0
DWIDTH 11 0
BBX 8 8 2 0
BITMAP
38
44
82
82
FF
82
82
7C
ENDCHAR
STARTCHAR 2297
ENCODING 8855
SWIDTH 990 0
DWIDTH 11 0
BBX 7 8 2 0
BITMAP
38
C6
CE
B2
AA
CA
86
7C
ENDCHAR
STARTCHAR 2298
ENCODING 8856
SWIDTH 990 0
DWIDTH 11 0
BBX 7 8 2 0
BITMAP
38
C6
86
8A
92
A2
C2
3C
ENDCHAR
STARTCHAR 2299
ENCODING 8857
SWIDTH 990 0
DWIDTH 11 0
BBX 8 8 2 0
BITMAP
38
44
82
82
91
82
82
7C
ENDCHAR
STARTCHAR 22A2
ENCODING 8866
SWIDTH 990 0
DWIDTH 11 0
BBX 7 6 2 0
BITMAP
80
80
FE
80
80
80
ENDCHAR
STARTCHAR 22A3
ENCODING 8867
SWIDTH 990 0
DWIDTH 11 0
BBX 7 6 2 0
BITMAP
02
02
FE
02
02
02
ENDCHAR
STARTCHAR 22A4
ENCODING 8868
SWIDTH 990 0
DWIDTH 11 0
BBX 7 7 2 0
BITMAP
FE
10
10
10
10
10
10
ENDCHAR
STARTCHAR 22A5
ENCODING 8869
SWIDTH 990 0
DWIDTH 11 0
BBX 7 7 2 0
BITMAP
10
10
10
10
10
10
FE
ENDCHAR
STARTCHAR 22BB
ENCODING 8891
SWIDTH 990 0
DWIDTH 11 0
BBX 7 8 2 -2
BITMAP
44
44
48
28
28
10
00
FE
ENDCHAR
STARTCHAR 2302
ENCODING 8962
SWIDTH 630 0
DWIDTH 7 0
BBX 6 9 0 0
BITMAP
10
30
48
44
84
84
84
84
FC
ENDCHAR
STARTCHAR 2310
ENCODING 8976
SWIDTH 540 0
DWIDTH 6 0
BBX 6 3 0 1
BITMAP
FC
80
80
ENDCHAR
STARTCHAR 2320
ENCODING 8992
SWIDTH 630 0
DWIDTH 7 0
BBX 2 13 3 -3
BITMAP
C0
80
80
80
80
80
80
80
80
80
80
80
80
ENDCHAR
STARTCHAR 2321
ENCODING 8993
SWIDTH 630 0
DWIDTH 7 0
BBX 2 13 2 -2
BITMAP
40
40
40
40
40
40
40
40
40
40
40
40
80
ENDCHAR
STARTCHAR 2329
ENCODING 9001
SWIDTH 360 0
DWIDTH 4 0
BBX 2 7 1 0
BITMAP
40
80
80
80
80
80
40
ENDCHAR
STARTCHAR 232A
ENCODING 9002
SWIDTH 360 0
DWIDTH 4 0
BBX 2 7 1 0
BITMAP
80
80
40
40
80
80
80
ENDCHAR
STARTCHAR 2500
ENCODING 9472
SWIDTH 990 0
DWIDTH 11 0
BBX 11 1 0 2
BITMAP
FFE0
ENDCHAR
STARTCHAR 2502
ENCODING 9474
SWIDTH 990 0
DWIDTH 11 0
BBX 1 11 5 -3
BITMAP
80
80
80
80
80
80
80
80
80
80
80
ENDCHAR
STARTCHAR 250C
ENCODING 9484
SWIDTH 990 0
DWIDTH 11 0
BBX 6 6 5 -3
BITMAP
FC
80
80
80
80
80
ENDCHAR
STARTCHAR 2510
ENCODING 9488
SWIDTH 990 0
DWIDTH 11 0
BBX 6 6 0 -3
BITMAP
FC
04
04
04
04
04
ENDCHAR
STARTCHAR 2514
ENCODING 9492
SWIDTH 990 0
DWIDTH 11 0
BBX 6 6 5 2
BITMAP
80
80
80
80
80
FC
ENDCHAR
STARTCHAR 2518
ENCODING 9496
SWIDTH 990 0
DWIDTH 11 0
BBX 6 6 0 2
BITMAP
04
04
04
04
04
FC
ENDCHAR
STARTCHAR 251C
ENCODING 9500
SWIDTH 990 0
DWIDTH 11 0
BBX 6 11 5 -3
BITMAP
80
80
80
80
80
FC
80
80
80
80
80
ENDCHAR
STARTCHAR 2524
ENCODING 9508
SWIDTH 990 0
DWIDTH 11 0
BBX 6 11 0 -3
BITMAP
04
04
04
04
04
FC
04
04
04
04
04
ENDCHAR
STARTCHAR 252C
ENCODING 9516
SWIDTH 990 0
DWIDTH 11 0
BBX 11 6 0 -3
BITMAP
FFE0
0400
0400
0400
0400
0400
ENDCHAR
STARTCHAR 2534
ENCODING 9524
SWIDTH 990 0
DWIDTH 11 0
BBX 11 6 0 2
BITMAP
0400
0400
0400
0400
0400
FFE0
ENDCHAR
STARTCHAR 253C
ENCODING 9532
SWIDTH 990 0
DWIDTH 11 0
BBX 11 11 0 -3
BITMAP
0400
0400
0400
0400
0400
FFE0
0400
0400
0400
0400
0400
ENDCHAR
STARTCHAR 2550
ENCODING 9552
SWIDTH 990 0
DWIDTH 11 0
BBX 11 2 0 2
BITMAP
FFE0
FFE0
ENDCHAR
STARTCHAR 2551
ENCODING 9553
SWIDTH 990 0
DWIDTH 11 0
BBX 3 11 4 -3
BITMAP
A0
A0
A0
A0
A0
A0
A0
A0
A0
A0
A0
ENDCHAR
STARTCHAR 2552
ENCODING 9554
SWIDTH 990 0
DWIDTH 11 0
BBX 6 6 5 -2
BITMAP
FC
FC
80
80
80
80
ENDCHAR
STARTCHAR 2553
ENCODING 9555
SWIDTH 990 0
DWIDTH 11 0
BBX 7 6 4 -3
BITMAP
FE
A0
A0
A0
A0
A0
ENDCHAR
STARTCHAR 2554
ENCODING 9556
SWIDTH 990 0
DWIDTH 11 0
BBX 7 6 4 -2
BITMAP
FE
BE
A0
A0
A0
A0
ENDCHAR
STARTCHAR 2555
ENCODING 9557
SWIDTH 990 0
DWIDTH 11 0
BBX 6 6 0 -2
BITMAP
FC
FC
04
04
04
04
ENDCHAR
STARTCHAR 2556
ENCODING 9558
SWIDTH 990 0
DWIDTH 11 0
BBX 7 6 0 -3
BITMAP
FE
0A
0A
0A
0A
0A
ENDCHAR
STARTCHAR 2557
ENCODING 9559
SWIDTH 990 0
DWIDTH 11 0
BBX 7 6 0 -2
BITMAP
FE
FA
0A
0A
0A
0A
ENDCHAR
STARTCHAR 2558
ENCODING 9560
SWIDTH 990 0
DWIDTH 11 0
BBX 6 6 5 2
BITMAP
80
80
80
80
FC
FC
ENDCHAR
STARTCHAR 2559
ENCODING 9561
SWIDTH 990 0
DWIDTH 11 0
BBX 7 6 4 2
BITMAP
A0
A0
A0
A0
A0
FE
ENDCHAR
STARTCHAR 255A
ENCODING 9562
SWIDTH 990 0
DWIDTH 11 0
BBX 7 6 4 2
BITMAP
A0
A0
A0
A0
BE
FE
ENDCHAR
STARTCHAR 255B
ENCODING 9563
SWIDTH 990 0
DWIDTH 11 0
BBX 6 6 0 2
BITMAP
04
04
04
04
FC
FC
ENDCHAR
STARTCHAR 255C
ENCODING 9564
SWIDTH 990 0
DWIDTH 11 0
BBX 7 6 0 2
BITMAP
0A
0A
0A
0A
0A
FE
ENDCHAR
STARTCHAR 255D
ENCODING 9565
SWIDTH 990 0
DWIDTH 11 0
BBX 7 6 0 2
BITMAP
0A
0A
0A
0A
FA
FE
ENDCHAR
STARTCHAR 255E
ENCODING 9566
SWIDTH 990 0
DWIDTH 11 0
BBX 6 10 5 -2
BITMAP
80
80
80
80
FC
FC
80
80
80
80
ENDCHAR
STARTCHAR 255F
ENCODING 9567
SWIDTH 990 0
DWIDTH 11 0
BBX 7 11 4 -3
BITMAP
A0
A0
A0
A0
A0
BE
A0
A0
A0
A0
A0
ENDCHAR
STARTCHAR 2560
ENCODING 9568
SWIDTH 990 0
DWIDTH 11 0
BBX 7 10 4 -2
BITMAP
A0
A0
A0
A0
BE
BE
A0
A0
A0
A0
ENDCHAR
STARTCHAR 2561
ENCODING 9569
SWIDTH 990 0
DWIDTH 11 0
BBX 6 10 0 -2
BITMAP
04
04
04
04
FC
FC
04
04
04
04
ENDCHAR
STARTCHAR 2562
ENCODING 9570
SWIDTH 990 0
DWIDTH 11 0
BBX 7 11 0 -3
BITMAP
0A
0A
0A
0A
0A
FA
0A
0A
0A
0A
0A
ENDCHAR
STARTCHAR 2563
ENCODING 9571
SWIDTH 990 0
DWIDTH 11 0
BBX 7 10 0 -2
BITMAP
0A
0A
0A
0A
FA
FA
0A
0A
0A
0A
ENDCHAR
STARTCHAR 2564
ENCODING 9572
SWIDTH 990 0
DWIDTH 11 0
BBX 11 6 0 -2
BITMAP
FFE0
FFE0
0400
0400
0400
0400
ENDCHAR
STARTCHAR 2565
ENCODING 9573
SWIDTH 990 0
DWIDTH 11 0
BBX 11 6 0 -3
BITMAP
FFE0
0A00
0A00
0A00
0A00
0A00
ENDCHAR
STARTCHAR 2566
ENCODING 9574
SWIDTH 990 0
DWIDTH 11 0
BBX 11 6 0 -2
BITMAP
FFE0
FBE0
0A00
0A00
0A00
0A00
ENDCHAR
STARTCHAR 2567
ENCODING 9575
SWIDTH 990 0
DWIDTH 11 0
BBX 11 6 0 2
BITMAP
0400
0400
0400
0400
FFE0
FFE0
ENDCHAR
STARTCHAR 2568
ENCODING 9576
SWIDTH 990 0
DWIDTH 11 0
BBX 11 6 0 2
BITMAP
0A00
0A00
0A00
0A00
0A00
FFE0
ENDCHAR
STARTCHAR 2569
ENCODING 9577
SWIDTH 990 0
DWIDTH 11 0
BBX 11 6 0 2
BITMAP
0A00
0A00
0A00
0A00
FBE0
FFE0
ENDCHAR
STARTCHAR 256A
ENCODING 9578
SWIDTH 990 0
DWIDTH 11 0
BBX 11 10 0 -2
BITMAP
0400
0400
0400
0400
FFE0
FFE0
0400
0400
0400
0400
ENDCHAR
STARTCHAR 256B
ENCODING 9579
SWIDTH 990 0
DWIDTH 11 0
BBX 11 11 0 -3
BITMAP
0A00
0A00
0A00
0A00
0A00
FFE0
0A00
0A00
0A00
0A00
0A00
ENDCHAR
STARTCHAR 256C
ENCODING 9580
SWIDTH 990 0
DWIDTH 11 0
BBX 11 10 0 -2
BITMAP
0A00
0A00
0A00
0A00
FBE0
FBE0
0A00
0A00
0A00
0A00
ENDCHAR
STARTCHAR 256D
ENCODING 9581
SWIDTH 990 0
DWIDTH 11 0
BBX 6 6 5 -3
BITMAP
1C
60
80
80
80
80
ENDCHAR
STARTCHAR 256E
ENCODING 9582
SWIDTH 990 0
DWIDTH 11 0
BBX 6 6 0 -3
BITMAP
E0
18
08
04
04
04
ENDCHAR
STARTCHAR 256F
ENCODING 9583
SWIDTH 990 0
DWIDTH 11 0
BBX 6 6 0 2
BITMAP
04
04
04
08
10
E0
ENDCHAR
STARTCHAR 2570
ENCODING 9584
SWIDTH 990 0
DWIDTH 11 0
BBX 6 6 5 2
BITMAP
80
80
80
40
20
1C
ENDCHAR
STARTCHAR 2580
ENCODING 9600
SWIDTH 990 0
DWIDTH 11 0
BBX 11 5 0 3
BITMAP
FFE0
FFE0
FFE0
FFE0
FFE0
ENDCHAR
STARTCHAR 2584
ENCODING 9604
SWIDTH 990 0
DWIDTH 11 0
BBX 11 6 0 -3
BITMAP
FFE0
FFE0
FFE0
FFE0
FFE0
FFE0
ENDCHAR
STARTCHAR 2588
ENCODING 9608
SWIDTH 990 0
DWIDTH 11 0
BBX 11 11 0 -3
BITMAP
FFE0
FFE0
FFE0
FFE0
FFE0
FFE0
FFE0
FFE0
FFE0
FFE0
FFE0
ENDCHAR
STARTCHAR 258C
ENCODING 9612
SWIDTH 990 0
DWIDTH 11 0
BBX 6 11 0 -3
BITMAP
FC
FC
FC
FC
FC
FC
FC
FC
FC
FC
FC
ENDCHAR
STARTCHAR 2590
ENCODING 9616
SWIDTH 990 0
DWIDTH 11 0
BBX 5 11 6 -3
BITMAP
F8
F8
F8
F8
F8
F8
F8
F8
F8
F8
F8
ENDCHAR
STARTCHAR 2591
ENCODING 9617
SWIDTH 990 0
DWIDTH 11 0
BBX 10 9 0 -1
BITMAP
CCC0
CCC0
0000
CCC0
CCC0
0000
0000
CCC0
CCC0
ENDCHAR
STARTCHAR 2592
ENCODING 9618
SWIDTH 990 0
DWIDTH 11 0
BBX 11 11 0 -3
BITMAP
CD80
CD80
3260
CD80
CD80
3260
3260
CD80
CD80
3260
3260
ENDCHAR
STARTCHAR 2593
ENCODING 9619
SWIDTH 990 0
DWIDTH 11 0
BBX 11 11 0 -3
BITMAP
FFE0
FFE0
CD80
FFE0
FFE0
CD80
CD80
FFE0
FFE0
CD80
CD80
ENDCHAR
STARTCHAR 25A0
ENCODING 9632
SWIDTH 630 0
DWIDTH 7 0
BBX 8 9 -1 0
BITMAP
FF
FF
FF
FF
FF
FF
FF
FF
FF
ENDCHAR
STARTCHAR 25A1
ENCODING 9633
SWIDTH 630 0
DWIDTH 7 0
BBX 6 6 0 0
BITMAP
FC
84
84
84
84
FC
ENDCHAR
STARTCHAR 25AA
ENCODING 9642
SWIDTH 360 0
DWIDTH 4 0
BBX 2 3 1 1
BITMAP
C0
C0
C0
ENDCHAR
STARTCHAR 25AB
ENCODING 9643
SWIDTH 360 0
DWIDTH 4 0
BBX 2 4 1 1
BITMAP
C0
C0
C0
C0
ENDCHAR
STARTCHAR 25AC
ENCODING 9644
SWIDTH 990 0
DWIDTH 11 0
BBX 8 4 2 0
BITMAP
FF
FF
FF
FF
ENDCHAR
STARTCHAR 25B2
ENCODING 9650
SWIDTH 990 0
DWIDTH 11 0
BBX 5 6 3 1
BITMAP
20
20
70
70
F8
F8
ENDCHAR
STARTCHAR 25B5
ENCODING 9653
SWIDTH 720 0
DWIDTH 8 0
BBX 6 5 1 1
BITMAP
30
30
48
48
FC
ENDCHAR
STARTCHAR 25B9
ENCODING 9657
SWIDTH 720 0
DWIDTH 8 0
BBX 5 6 1 0
BITMAP
80
E0
98
98
E0
80
ENDCHAR
STARTCHAR 25BA
ENCODING 9658
SWIDTH 990 0
DWIDTH 11 0
BBX 5 4 3 2
BITMAP
80
F0
F8
C0
ENDCHAR
STARTCHAR 25BC
ENCODING 9660
SWIDTH 990 0
DWIDTH 11 0
BBX 7 7 2 0
BITMAP
FE
7C
7C
38
38
10
10
ENDCHAR
STARTCHAR 25BF
ENCODING 9663
SWIDTH 720 0
DWIDTH 8 0
BBX 6 5 1 0
BITMAP
FC
48
48
30
30
ENDCHAR
STARTCHAR 25C3
ENCODING 9667
SWIDTH 720 0
DWIDTH 8 0
BBX 5 6 2 0
BITMAP
08
38
C8
C8
38
08
ENDCHAR
STARTCHAR 25C4
ENCODING 9668
SWIDTH 990 0
DWIDTH 11 0
BBX 5 4 3 2
BITMAP
08
78
F8
18
ENDCHAR
STARTCHAR 25C6
ENCODING 9670
SWIDTH 990 0
DWIDTH 11 0
BBX 5 6 3 0
BITMAP
20
70
F8
F8
70
30
ENDCHAR
STARTCHAR 25C7
ENCODING 9671
SWIDTH 990 0
DWIDTH 11 0
BBX 7 8 2 0
BITMAP
10
28
48
84
82
44
28
10
ENDCHAR
STARTCHAR 25CA
ENCODING 9674
SWIDTH 450 0
DWIDTH 5 0
BBX 5 8 0 0
BITMAP
20
50
90
88
88
50
50
20
ENDCHAR
STARTCHAR 25CB
ENCODING 9675
SWIDTH 630 0
DWIDTH 7 0
BBX 6 6 0 1
BITMAP
38
C4
84
84
84
78
ENDCHAR
STARTCHAR 25CF
ENCODING 9679
SWIDTH 630 0
DWIDTH 7 0
BBX 6 6 0 0
BITMAP
38
7C
7C
FC
7C
38
ENDCHAR
STARTCHAR 25D8
ENCODING 9688
SWIDTH 630 0
DWIDTH 7 0
BBX 7 7 0 0
BITMAP
FE
FE
CE
C6
CE
FE
FE
ENDCHAR
STARTCHAR 25D9
ENCODING 9689
SWIDTH 630 0
DWIDTH 7 0
BBX 8 9 -1 0
BITMAP
FF
E3
DD
BF
BF
BF
DD
E3
FF
ENDCHAR
STARTCHAR 25E6
ENCODING 9702
SWIDTH 540 0
DWIDTH 6 0
BBX 4 4 1 1
BITMAP
E0
90
90
E0
ENDCHAR
STARTCHAR 263A
ENCODING 9786
SWIDTH 990 0
DWIDTH 11 0
BBX 8 9 2 0
BITMAP
38
C6
82
A9
81
C5
BA
82
7C
ENDCHAR
STARTCHAR 263B
ENCODING 9787
SWIDTH 1080 0
DWIDTH 12 0
BBX 8 9 2 0
BITMAP
3C
7E
DF
DB
FF
FF
C3
7E
3C
ENDCHAR
STARTCHAR 263C
ENCODING 9788
SWIDTH 900 0
DWIDTH 10 0
BBX 8 8 1 0
BITMAP
10
5A
26
C3
42
24
5A
10
ENDCHAR
STARTCHAR 2640
ENCODING 9792
SWIDTH 720 0
DWIDTH 8 0
BBX 4 8 2 1
BITMAP
60
90
90
90
60
40
60
40
ENDCHAR
STARTCHAR 2642
ENCODING 9794
SWIDTH 720 0
DWIDTH 8 0
BBX 6 7 1 2
BITMAP
0C
0C
10
F0
90
90
60
ENDCHAR
STARTCHAR 2660
ENCODING 9824
SWIDTH 540 0
DWIDTH 6 0
BBX 7 8 0 0
BITMAP
10
30
78
FC
FE
EC
10
38
ENDCHAR
STARTCHAR 2663
ENCODING 9827
SWIDTH 630 0
DWIDTH 7 0
BBX 8 9 0 0
BITMAP
38
38
38
FE
FF
EF
F6
10
38
ENDCHAR
STARTCHAR 2665
ENCODING 9829
SWIDTH 630 0
DWIDTH 7 0
BBX 7 8 0 1
BITMAP
EC
FE
FE
FC
7C
38
30
10
ENDCHAR
STARTCHAR 2666
ENCODING 9830
SWIDTH 540 0
DWIDTH 6 0
BBX 6 8 0 0
BITMAP
30
30
78
FC
FC
78
30
20
ENDCHAR
STARTCHAR 266A
ENCODING 9834
SWIDTH 540 0
DWIDTH 6 0
BBX 4 8 1 1
BITMAP
40
20
30
50
50
50
C0
C0
ENDCHAR
STARTCHAR 266B
ENCODING 9835
SWIDTH 720 0
DWIDTH 8 0
BBX 6 7 1 0
BITMAP
3C
44
44
44
44
CC
8C
ENDCHAR
STARTCHAR 301A
ENCODING 12314
SWIDTH 720 0
DWIDTH 8 0
BBX 4 11 2 -2
BITMAP
F0
C0
C0
C0
C0
C0
C0
C0
C0
C0
F0
ENDCHAR
STARTCHAR 301B
ENCODING 12315
SWIDTH 720 0
DWIDTH 8 0
BBX 4 11 2 -2
BITMAP
F0
50
50
50
50
50
50
50
50
50
F0
ENDCHAR
STARTCHAR EFBF
ENCODING 61375
SWIDTH 720 0
DWIDTH 8 0
BBX 9 8 -1 1
BITMAP
0080
0100
0200
C200
4400
4800
3000
3000
ENDCHAR
STARTCHAR EFC0
ENCODING 61376
SWIDTH 720 0
DWIDTH 8 0
BBX 5 12 0 -2
BITMAP
18
18
18
18
18
18
18
18
18
18
18
F8
ENDCHAR
STARTCHAR EFC1
ENCODING 61377
SWIDTH 720 0
DWIDTH 8 0
BBX 5 12 0 -2
BITMAP
F8
18
18
18
18
18
18
18
18
18
18
18
ENDCHAR
STARTCHAR EFC2
ENCODING 61378
SWIDTH 720 0
DWIDTH 8 0
BBX 8 11 0 -3
BITMAP
FF
81
81
81
81
81
81
81
81
81
81
ENDCHAR
STARTCHAR EFC3
ENCODING 61379
SWIDTH 720 0
DWIDTH 8 0
BBX 8 11 0 -3
BITMAP
81
81
81
81
81
81
81
81
81
81
FF
ENDCHAR
STARTCHAR EFC4
ENCODING 61380
SWIDTH 720 0
DWIDTH 8 0
BBX 5 12 3 -2
BITMAP
C0
C0
C0
C0
C0
C0
C0
C0
C0
C0
C0
F8
ENDCHAR
STARTCHAR EFC5
ENCODING 61381
SWIDTH 720 0
DWIDTH 8 0
BBX 5 12 3 -2
BITMAP
F8
C0
C0
C0
C0
C0
C0
C0
C0
C0
C0
C0
ENDCHAR
STARTCHAR EFC6
ENCODING 61382
SWIDTH 720 0
DWIDTH 8 0
BBX 8 11 0 -3
BITMAP
3C
42
82
81
81
81
81
81
81
81
81
ENDCHAR
STARTCHAR EFC7
ENCODING 61383
SWIDTH 720 0
DWIDTH 8 0
BBX 8 11 0 -3
BITMAP
81
81
81
81
81
81
81
82
82
42
3C
ENDCHAR
STARTCHAR EFC8
ENCODING 61384
SWIDTH 720 0
DWIDTH 8 0
BBX 8 11 0 -3
BITMAP
81
81
81
81
81
81
81
81
81
81
81
ENDCHAR
STARTCHAR EFC9
ENCODING 61385
SWIDTH 720 0
DWIDTH 8 0
BBX 2 12 3 -2
BITMAP
C0
C0
C0
C0
C0
C0
C0
C0
C0
C0
C0
C0
ENDCHAR
STARTCHAR EFCA
ENCODING 61386
SWIDTH 720 0
DWIDTH 8 0
BBX 6 6 1 0
BITMAP
30
30
48
48
FC
FC
ENDCHAR
STARTCHAR EFCB
ENCODING 61387
SWIDTH 720 0
DWIDTH 8 0
BBX 8 3 0 2
BITMAP
FF
00
FF
ENDCHAR
STARTCHAR EFCC
ENCODING 61388
SWIDTH 720 0
DWIDTH 8 0
BBX 4 11 4 -1
BITMAP
10
20
40
40
80
80
80
40
20
10
10
ENDCHAR
STARTCHAR EFCD
ENCODING 61389
SWIDTH 720 0
DWIDTH 8 0
BBX 8 12 0 -2
BITMAP
80
80
40
20
20
10
08
04
04
02
01
01
ENDCHAR
STARTCHAR EFCE
ENCODING 61390
SWIDTH 720 0
DWIDTH 8 0
BBX 7 4 0 -2
BITMAP
02
02
06
FE
ENDCHAR
STARTCHAR EFCF
ENCODING 61391
SWIDTH 720 0
DWIDTH 8 0
BBX 4 11 0 -1
BITMAP
80
40
20
20
10
10
10
20
40
80
80
ENDCHAR
STARTCHAR EFD0
ENCODING 61392
SWIDTH 720 0
DWIDTH 8 0
BBX 7 4 0 6
BITMAP
FC
06
02
02
ENDCHAR
STARTCHAR EFD1
ENCODING 61393
SWIDTH 720 0
DWIDTH 8 0
BBX 8 11 0 -1
BITMAP
01
02
04
04
08
10
10
20
40
80
80
ENDCHAR
STARTCHAR EFD2
ENCODING 61394
SWIDTH 720 0
DWIDTH 8 0
BBX 8 12 0 -2
BITMAP
01
01
02
04
04
08
10
20
20
40
80
FF
ENDCHAR
STARTCHAR EFD3
ENCODING 61395
SWIDTH 720 0
DWIDTH 8 0
BBX 8 12 0 -2
BITMAP
FF
80
40
20
20
10
08
08
04
02
01
01
ENDCHAR
STARTCHAR EFD4
ENCODING 61396
SWIDTH 720 0
DWIDTH 8 0
BBX 6 11 1 -3
BITMAP
30
30
30
78
B4
B4
B8
70
30
30
30
ENDCHAR
STARTCHAR EFD5
ENCODING 61397
SWIDTH 540 0
DWIDTH 6 0
BBX 6 9 0 -3
BITMAP
0C
30
40
40
70
40
40
80
80
ENDCHAR
STARTCHAR EFD6
ENCODING 61398
SWIDTH 990 0
DWIDTH 11 0
BBX 8 5 1 3
BITMAP
E9
4D
4F
4F
49
ENDCHAR
STARTCHAR EFD7
ENCODING 61399
SWIDTH 990 0
DWIDTH 11 0
BBX 9 9 1 0
BITMAP
1C00
6300
8D00
9080
A080
9080
9D00
4100
3E00
ENDCHAR
STARTCHAR EFD8
ENCODING 61400
SWIDTH 990 0
DWIDTH 11 0
BBX 9 9 1 0
BITMAP
1C00
6300
9D00
9480
9C80
9480
9500
4100
3E00
ENDCHAR
STARTCHAR EFD9
ENCODING 61401
SWIDTH 990 0
DWIDTH 11 0
BBX 10 4 0 3
BITMAP
F240
22C0
2540
2540
ENDCHAR
STARTCHAR EFDA
ENCODING 61402
SWIDTH 990 0
DWIDTH 11 0
BBX 9 9 1 0
BITMAP
1E00
6100
9D00
9080
9080
9080
9500
4900
3E00
ENDCHAR
STARTCHAR EFDB
ENCODING 61403
SWIDTH 990 0
DWIDTH 11 0
BBX 9 9 1 0
BITMAP
1E00
6100
9500
9480
9880
9480
9700
4100
3E00
ENDCHAR
STARTCHAR EFDC
ENCODING 61404
SWIDTH 720 0
DWIDTH 8 0
BBX 3 11 1 -1
BITMAP
20
20
20
20
20
20
20
20
E0
60
20
ENDCHAR
STARTCHAR EFDD
ENCODING 61405
SWIDTH 720 0
DWIDTH 8 0
BBX 2 13 3 -3
BITMAP
C0
C0
C0
C0
C0
C0
C0
C0
C0
C0
C0
C0
C0
ENDCHAR
STARTCHAR EFDE
ENCODING 61406
SWIDTH 720 0
DWIDTH 8 0
BBX 3 11 2 -3
BITMAP
60
60
60
60
60
60
60
60
60
40
80
ENDCHAR
STARTCHAR EFDF
ENCODING 61407
SWIDTH 720 0
DWIDTH 8 0
BBX 3 11 4 -3
BITMAP
80
80
80
80
80
60
C0
80
80
80
80
ENDCHAR
STARTCHAR EFE0
ENCODING 61408
SWIDTH 720 0
DWIDTH 8 0
BBX 2 11 3 -3
BITMAP
80
80
C0
C0
C0
C0
C0
C0
C0
C0
C0
ENDCHAR
STARTCHAR EFE1
ENCODING 61409
SWIDTH 720 0
DWIDTH 8 0
BBX 3 11 3 -3
BITMAP
C0
C0
C0
C0
C0
C0
C0
C0
40
40
20
ENDCHAR
STARTCHAR EFE2
ENCODING 61410
SWIDTH 720 0
DWIDTH 8 0
BBX 3 11 2 -3
BITMAP
60
60
60
40
40
80
40
60
60
60
60
ENDCHAR
STARTCHAR EFE3
ENCODING 61411
SWIDTH 720 0
DWIDTH 8 0
BBX 2 11 4 -3
BITMAP
C0
80
80
80
80
80
80
80
80
80
80
ENDCHAR
STARTCHAR EFE4
ENCODING 61412
SWIDTH 720 0
DWIDTH 8 0
BBX 4 11 0 -1
BITMAP
10
10
10
10
10
10
10
10
10
10
F0
ENDCHAR
STARTCHAR EFE5
ENCODING 61413
SWIDTH 720 0
DWIDTH 8 0
BBX 4 12 0 -2
BITMAP
F0
10
10
10
10
10
10
10
10
10
10
10
ENDCHAR
STARTCHAR EFE6
ENCODING 61414
SWIDTH 720 0
DWIDTH 8 0
BBX 4 11 4 -1
BITMAP
80
80
80
80
80
80
80
80
80
80
F0
ENDCHAR
STARTCHAR EFE7
ENCODING 61415
SWIDTH 720 0
DWIDTH 8 0
BBX 4 12 4 -2
BITMAP
F0
80
80
80
80
80
80
80
80
80
80
80
ENDCHAR
STARTCHAR EFE8
ENCODING 61416
SWIDTH 720 0
DWIDTH 8 0
BBX 8 1 0 3
BITMAP
FF
ENDCHAR
STARTCHAR EFE9
ENCODING 61417
SWIDTH 720 0
DWIDTH 8 0
BBX 8 2 0 9
BITMAP
04
FF
ENDCHAR
STARTCHAR EFEA
ENCODING 61418
SWIDTH 720 0
DWIDTH 8 0
BBX 8 1 0 9
BITMAP
FF
ENDCHAR
STARTCHAR EFEB
ENCODING 61419
SWIDTH 720 0
DWIDTH 8 0
BBX 8 1 0 -2
BITMAP
FF
ENDCHAR
STARTCHAR EFEC
ENCODING 61420
SWIDTH 540 0
DWIDTH 6 0
BBX 5 6 1 0
BITMAP
70
88
60
80
90
F0
ENDCHAR
STARTCHAR EFFA
ENCODING 61434
SWIDTH 990 0
DWIDTH 11 0
BBX 7 8 2 0
BITMAP
38
7E
FE
FE
FE
FE
FE
38
ENDCHAR
STARTCHAR EFFB
ENCODING 61435
SWIDTH 990 0
DWIDTH 11 0
BBX 7 8 2 0
BITMAP
FE
FE
FE
FE
FE
FE
FE
FE
ENDCHAR
STARTCHAR EFFC
ENCODING 61436
SWIDTH 990 0
DWIDTH 11 0
BBX 7 8 2 0
BITMAP
FE
82
82
82
82
82
82
FE
ENDCHAR
STARTCHAR EFFD
ENCODING 61437
SWIDTH 990 0
DWIDTH 11 0
BBX 7 8 2 0
BITMAP
3C
C2
82
82
82
82
82
7C
ENDCHAR
STARTCHAR EFFE
ENCODING 61438
SWIDTH 810 0
DWIDTH 9 0
BBX 7 7 1 1
BITMAP
7E
A2
B2
9C
90
90
70
ENDCHAR
STARTCHAR EFFF
ENCODING 61439
SWIDTH 540 0
DWIDTH 6 0
BBX 5 5 0 4
BITMAP
70
D8
B8
A8
F8
ENDCHAR
STARTCHAR FB00
ENCODING 64256
SWIDTH 540 0
DWIDTH 6 0
BBX 6 9 0 0
BITMAP
6C
48
48
FC
48
48
48
48
48
ENDCHAR
STARTCHAR FB01
ENCODING 64257
SWIDTH 540 0
DWIDTH 6 0
BBX 5 9 0 0
BITMAP
68
40
40
E8
48
48
48
48
48
ENDCHAR
STARTCHAR FB02
ENCODING 64258
SWIDTH 540 0
DWIDTH 6 0
BBX 5 9 0 0
BITMAP
68
48
48
E8
48
48
48
48
48
ENDCHAR
STARTCHAR FB03
ENCODING 64259
SWIDTH 810 0
DWIDTH 9 0
BBX 8 9 0 0
BITMAP
6D
48
48
FD
49
49
49
49
49
ENDCHAR
STARTCHAR FB04
ENCODING 64260
SWIDTH 810 0
DWIDTH 9 0
BBX 8 9 0 0
BITMAP
6D
49
49
FD
49
49
49
49
49
ENDCHAR
ENDFONT
